<mxfile host="65bd71144e">
    <diagram id="UPQk6KksfmWLf8j3ygNC" name="Страница 1">
        <mxGraphModel dx="4760" dy="2456" grid="1" gridSize="10" guides="1" tooltips="1" connect="1" arrows="1" fold="1" page="1" pageScale="1" pageWidth="827" pageHeight="1169" math="0" shadow="0">
            <root>
                <mxCell id="0"/>
                <mxCell id="1" parent="0"/>
                <mxCell id="2" value="[5, 7, 3, 6, 6, 5, 7]" style="rounded=1;whiteSpace=wrap;html=1;" vertex="1" parent="1">
                    <mxGeometry x="-27" y="-980" width="350" height="60" as="geometry"/>
                </mxCell>
                <mxCell id="5" value="" style="edgeStyle=none;html=1;" edge="1" parent="1" source="3" target="4">
                    <mxGeometry relative="1" as="geometry"/>
                </mxCell>
                <mxCell id="3" value="найти длину" style="rounded=1;whiteSpace=wrap;html=1;" vertex="1" parent="1">
                    <mxGeometry x="-6" y="-870" width="120" height="60" as="geometry"/>
                </mxCell>
                <mxCell id="4" value="7" style="whiteSpace=wrap;html=1;rounded=1;" vertex="1" parent="1">
                    <mxGeometry x="188" y="-870" width="120" height="60" as="geometry"/>
                </mxCell>
                <mxCell id="8" value="" style="edgeStyle=none;html=1;" edge="1" parent="1" source="6" target="7">
                    <mxGeometry relative="1" as="geometry"/>
                </mxCell>
                <mxCell id="6" value="проверка на базовый случай" style="rounded=1;whiteSpace=wrap;html=1;" vertex="1" parent="1">
                    <mxGeometry x="-6" y="-810" width="120" height="60" as="geometry"/>
                </mxCell>
                <mxCell id="7" value="False" style="whiteSpace=wrap;html=1;rounded=1;" vertex="1" parent="1">
                    <mxGeometry x="188" y="-810" width="120" height="60" as="geometry"/>
                </mxCell>
                <mxCell id="13" value="" style="edgeStyle=none;html=1;" edge="1" parent="1" source="9" target="12">
                    <mxGeometry relative="1" as="geometry"/>
                </mxCell>
                <mxCell id="9" value="найти средину&amp;nbsp;" style="rounded=1;whiteSpace=wrap;html=1;" vertex="1" parent="1">
                    <mxGeometry x="-6" y="-750" width="120" height="60" as="geometry"/>
                </mxCell>
                <mxCell id="15" value="" style="edgeStyle=none;html=1;" edge="1" parent="1" source="10" target="14">
                    <mxGeometry relative="1" as="geometry"/>
                </mxCell>
                <mxCell id="10" value="найти левую часть" style="rounded=1;whiteSpace=wrap;html=1;" vertex="1" parent="1">
                    <mxGeometry x="-8" y="-690" width="120" height="60" as="geometry"/>
                </mxCell>
                <mxCell id="17" value="" style="edgeStyle=none;html=1;" edge="1" parent="1">
                    <mxGeometry relative="1" as="geometry">
                        <mxPoint x="112" y="-600" as="sourcePoint"/>
                        <mxPoint x="186" y="-600" as="targetPoint"/>
                    </mxGeometry>
                </mxCell>
                <mxCell id="11" value="найти правую часть" style="rounded=1;whiteSpace=wrap;html=1;" vertex="1" parent="1">
                    <mxGeometry x="-6" y="-630" width="120" height="60" as="geometry"/>
                </mxCell>
                <mxCell id="12" value="index_3" style="whiteSpace=wrap;html=1;rounded=1;" vertex="1" parent="1">
                    <mxGeometry x="186" y="-750" width="120" height="60" as="geometry"/>
                </mxCell>
                <mxCell id="14" value="[5, 7, 3]" style="whiteSpace=wrap;html=1;rounded=1;" vertex="1" parent="1">
                    <mxGeometry x="186" y="-690" width="120" height="60" as="geometry"/>
                </mxCell>
                <mxCell id="16" value="[6, 6, 5, 7]" style="whiteSpace=wrap;html=1;rounded=1;" vertex="1" parent="1">
                    <mxGeometry x="181" y="-630" width="120" height="60" as="geometry"/>
                </mxCell>
                <mxCell id="18" value="&lt;meta charset=&quot;utf-8&quot;&gt;&lt;div style=&quot;color: rgb(173, 186, 199); background-color: rgb(34, 39, 46); font-family: &amp;quot;JetBrains Mono&amp;quot;, Consolas, &amp;quot;Courier New&amp;quot;, monospace, Menlo, Monaco, &amp;quot;Courier New&amp;quot;, monospace; font-weight: normal; font-size: 12px; line-height: 17px;&quot;&gt;&lt;div&gt;&lt;span style=&quot;color: #f47067;&quot;&gt;return&lt;/span&gt;&lt;span style=&quot;color: #adbac7;&quot;&gt; &lt;/span&gt;&lt;span style=&quot;color: #dcbdfb;&quot;&gt;merge&lt;/span&gt;&lt;span style=&quot;color: #adbac7;&quot;&gt;(&lt;/span&gt;&lt;span style=&quot;color: #dcbdfb;&quot;&gt;mergesort&lt;/span&gt;&lt;span style=&quot;color: #adbac7;&quot;&gt;(&lt;/span&gt;&lt;span style=&quot;color: #adbac7;&quot;&gt;left_half&lt;/span&gt;&lt;span style=&quot;color: #adbac7;&quot;&gt;), &lt;/span&gt;&lt;span style=&quot;color: #dcbdfb;&quot;&gt;mergesort&lt;/span&gt;&lt;span style=&quot;color: #adbac7;&quot;&gt;(&lt;/span&gt;&lt;span style=&quot;color: #adbac7;&quot;&gt;right_half&lt;/span&gt;&lt;span style=&quot;color: #adbac7;&quot;&gt;))&lt;/span&gt;&lt;/div&gt;&lt;/div&gt;" style="rounded=1;whiteSpace=wrap;html=1;" vertex="1" parent="1">
                    <mxGeometry x="-90" y="-560" width="480" height="60" as="geometry"/>
                </mxCell>
                <mxCell id="19" value="&lt;meta charset=&quot;utf-8&quot;&gt;&lt;div style=&quot;color: rgb(173, 186, 199); background-color: rgb(34, 39, 46); font-family: &amp;quot;JetBrains Mono&amp;quot;, Consolas, &amp;quot;Courier New&amp;quot;, monospace, Menlo, Monaco, &amp;quot;Courier New&amp;quot;, monospace; font-weight: normal; font-size: 12px; line-height: 17px;&quot;&gt;&lt;div&gt;&lt;span style=&quot;color: #f47067;&quot;&gt;def&lt;/span&gt;&lt;span style=&quot;color: #adbac7;&quot;&gt; &lt;/span&gt;&lt;span style=&quot;color: #dcbdfb;&quot;&gt;mergesort&lt;/span&gt;&lt;span style=&quot;color: #adbac7;&quot;&gt;(&lt;/span&gt;&lt;span style=&quot;color: #f69d50;&quot;&gt;arr&lt;/span&gt;&lt;span style=&quot;color: #adbac7;&quot;&gt;:&lt;/span&gt;&lt;span style=&quot;color: #f69d50;&quot;&gt;list&lt;/span&gt;&lt;span style=&quot;color: #adbac7;&quot;&gt;)-&amp;gt;&lt;/span&gt;&lt;span style=&quot;color: #f69d50;&quot;&gt;list&lt;/span&gt;&lt;span style=&quot;color: #adbac7;&quot;&gt;:&lt;/span&gt;&lt;/div&gt;&lt;/div&gt;" style="rounded=1;whiteSpace=wrap;html=1;" vertex="1" parent="1">
                    <mxGeometry x="-90" y="-910" width="500" height="30" as="geometry"/>
                </mxCell>
                <mxCell id="407" style="edgeStyle=none;html=1;exitX=0.25;exitY=0.2;exitDx=0;exitDy=0;exitPerimeter=0;fontSize=20;" edge="1" parent="1" source="21">
                    <mxGeometry relative="1" as="geometry">
                        <mxPoint x="240" y="-340" as="targetPoint"/>
                    </mxGeometry>
                </mxCell>
                <mxCell id="21" value="" style="shape=curlyBracket;whiteSpace=wrap;html=1;rounded=1;flipH=1;labelPosition=right;verticalLabelPosition=middle;align=left;verticalAlign=middle;rotation=90;" vertex="1" parent="1">
                    <mxGeometry x="92" y="-540" width="20" height="120" as="geometry"/>
                </mxCell>
                <mxCell id="22" value="5 /&amp;nbsp; 3" style="endArrow=classic;html=1;exitX=0.514;exitY=0.929;exitDx=0;exitDy=0;exitPerimeter=0;entryX=1;entryY=0.25;entryDx=0;entryDy=0;fillColor=#a20025;strokeColor=#6F0000;strokeWidth=5;" edge="1" parent="1" source="21" target="25">
                    <mxGeometry x="0.0021" y="6" width="50" height="50" relative="1" as="geometry">
                        <mxPoint x="250" y="780" as="sourcePoint"/>
                        <mxPoint x="30" y="790" as="targetPoint"/>
                        <mxPoint as="offset"/>
                    </mxGeometry>
                </mxCell>
                <mxCell id="25" value="&lt;meta charset=&quot;utf-8&quot;&gt;&lt;div style=&quot;color: rgb(173, 186, 199); background-color: rgb(34, 39, 46); font-family: &amp;quot;JetBrains Mono&amp;quot;, Consolas, &amp;quot;Courier New&amp;quot;, monospace, Menlo, Monaco, &amp;quot;Courier New&amp;quot;, monospace; font-weight: normal; font-size: 12px; line-height: 17px;&quot;&gt;&lt;div&gt;&lt;span style=&quot;color: #f47067;&quot;&gt;def&lt;/span&gt;&lt;span style=&quot;color: #adbac7;&quot;&gt; &lt;/span&gt;&lt;span style=&quot;color: #dcbdfb;&quot;&gt;mergesort&lt;/span&gt;&lt;span style=&quot;color: #adbac7;&quot;&gt;(&lt;/span&gt;&lt;span style=&quot;color: #f69d50;&quot;&gt;arr&lt;/span&gt;&lt;span style=&quot;color: #adbac7;&quot;&gt;:&lt;/span&gt;&lt;span style=&quot;color: #f69d50;&quot;&gt;list&lt;/span&gt;&lt;span style=&quot;color: #adbac7;&quot;&gt;)-&amp;gt;&lt;/span&gt;&lt;span style=&quot;color: #f69d50;&quot;&gt;list&lt;/span&gt;&lt;span style=&quot;color: #adbac7;&quot;&gt;:&lt;/span&gt;&lt;/div&gt;&lt;/div&gt;" style="rounded=1;whiteSpace=wrap;html=1;" vertex="1" parent="1">
                    <mxGeometry x="-1211" y="-360" width="500" height="30" as="geometry"/>
                </mxCell>
                <mxCell id="27" style="edgeStyle=none;html=1;exitX=0.5;exitY=1;exitDx=0;exitDy=0;entryX=0.564;entryY=-0.025;entryDx=0;entryDy=0;entryPerimeter=0;" edge="1" parent="1" source="26" target="25">
                    <mxGeometry relative="1" as="geometry"/>
                </mxCell>
                <mxCell id="26" value="[5, 7, 3]" style="whiteSpace=wrap;html=1;rounded=1;" vertex="1" parent="1">
                    <mxGeometry x="-991" y="-460" width="120" height="60" as="geometry"/>
                </mxCell>
                <mxCell id="28" value="" style="edgeStyle=none;html=1;" edge="1" parent="1" source="29" target="30">
                    <mxGeometry relative="1" as="geometry"/>
                </mxCell>
                <mxCell id="29" value="найти длину" style="rounded=1;whiteSpace=wrap;html=1;" vertex="1" parent="1">
                    <mxGeometry x="-1211" y="-330" width="120" height="60" as="geometry"/>
                </mxCell>
                <mxCell id="30" value="3" style="whiteSpace=wrap;html=1;rounded=1;" vertex="1" parent="1">
                    <mxGeometry x="-1017" y="-330" width="120" height="60" as="geometry"/>
                </mxCell>
                <mxCell id="31" value="" style="edgeStyle=none;html=1;" edge="1" parent="1" source="32" target="33">
                    <mxGeometry relative="1" as="geometry"/>
                </mxCell>
                <mxCell id="32" value="проверка на базовый случай" style="rounded=1;whiteSpace=wrap;html=1;" vertex="1" parent="1">
                    <mxGeometry x="-1211" y="-250" width="120" height="60" as="geometry"/>
                </mxCell>
                <mxCell id="33" value="False" style="whiteSpace=wrap;html=1;rounded=1;" vertex="1" parent="1">
                    <mxGeometry x="-1017" y="-250" width="120" height="60" as="geometry"/>
                </mxCell>
                <mxCell id="34" value="" style="edgeStyle=none;html=1;" edge="1" parent="1" source="35" target="40">
                    <mxGeometry relative="1" as="geometry"/>
                </mxCell>
                <mxCell id="35" value="найти средину&amp;nbsp;" style="rounded=1;whiteSpace=wrap;html=1;" vertex="1" parent="1">
                    <mxGeometry x="-1209" y="-160" width="120" height="60" as="geometry"/>
                </mxCell>
                <mxCell id="36" value="" style="edgeStyle=none;html=1;" edge="1" parent="1" source="37" target="41">
                    <mxGeometry relative="1" as="geometry"/>
                </mxCell>
                <mxCell id="37" value="найти левую часть" style="rounded=1;whiteSpace=wrap;html=1;" vertex="1" parent="1">
                    <mxGeometry x="-1211" y="-70" width="120" height="60" as="geometry"/>
                </mxCell>
                <mxCell id="38" value="" style="edgeStyle=none;html=1;" edge="1" parent="1">
                    <mxGeometry relative="1" as="geometry">
                        <mxPoint x="-1091" y="50" as="sourcePoint"/>
                        <mxPoint x="-1017" y="50" as="targetPoint"/>
                    </mxGeometry>
                </mxCell>
                <mxCell id="39" value="найти правую часть" style="rounded=1;whiteSpace=wrap;html=1;" vertex="1" parent="1">
                    <mxGeometry x="-1211" y="20" width="120" height="60" as="geometry"/>
                </mxCell>
                <mxCell id="40" value="index_1" style="whiteSpace=wrap;html=1;rounded=1;" vertex="1" parent="1">
                    <mxGeometry x="-1017" y="-160" width="120" height="60" as="geometry"/>
                </mxCell>
                <mxCell id="41" value="[5]" style="whiteSpace=wrap;html=1;rounded=1;" vertex="1" parent="1">
                    <mxGeometry x="-1017" y="-70" width="120" height="60" as="geometry"/>
                </mxCell>
                <mxCell id="42" value="[7, 3]" style="whiteSpace=wrap;html=1;rounded=1;" vertex="1" parent="1">
                    <mxGeometry x="-1017" y="20" width="120" height="60" as="geometry"/>
                </mxCell>
                <mxCell id="43" value="&lt;meta charset=&quot;utf-8&quot;&gt;&lt;div style=&quot;color: rgb(173, 186, 199); background-color: rgb(34, 39, 46); font-family: &amp;quot;JetBrains Mono&amp;quot;, Consolas, &amp;quot;Courier New&amp;quot;, monospace, Menlo, Monaco, &amp;quot;Courier New&amp;quot;, monospace; font-weight: normal; font-size: 12px; line-height: 17px;&quot;&gt;&lt;div&gt;&lt;span style=&quot;color: #f47067;&quot;&gt;return&lt;/span&gt;&lt;span style=&quot;color: #adbac7;&quot;&gt; &lt;/span&gt;&lt;span style=&quot;color: #dcbdfb;&quot;&gt;merge&lt;/span&gt;&lt;span style=&quot;color: #adbac7;&quot;&gt;(&lt;/span&gt;&lt;span style=&quot;color: #dcbdfb;&quot;&gt;mergesort&lt;/span&gt;&lt;span style=&quot;color: #adbac7;&quot;&gt;(&lt;/span&gt;&lt;span style=&quot;color: #adbac7;&quot;&gt;left_half&lt;/span&gt;&lt;span style=&quot;color: #adbac7;&quot;&gt;), &lt;/span&gt;&lt;span style=&quot;color: #dcbdfb;&quot;&gt;mergesort&lt;/span&gt;&lt;span style=&quot;color: #adbac7;&quot;&gt;(&lt;/span&gt;&lt;span style=&quot;color: #adbac7;&quot;&gt;right_half&lt;/span&gt;&lt;span style=&quot;color: #adbac7;&quot;&gt;))&lt;/span&gt;&lt;/div&gt;&lt;/div&gt;" style="rounded=1;whiteSpace=wrap;html=1;" vertex="1" parent="1">
                    <mxGeometry x="-1221" y="80" width="470" height="60" as="geometry"/>
                </mxCell>
                <mxCell id="44" value="" style="shape=curlyBracket;whiteSpace=wrap;html=1;rounded=1;flipH=1;labelPosition=right;verticalLabelPosition=middle;align=left;verticalAlign=middle;rotation=90;" vertex="1" parent="1">
                    <mxGeometry x="-1037" y="90" width="20" height="120" as="geometry"/>
                </mxCell>
                <mxCell id="45" value="" style="endArrow=classic;html=1;exitX=0.75;exitY=1;exitDx=0;exitDy=0;fillColor=#a20025;strokeColor=#6F0000;entryX=0.987;entryY=-0.028;entryDx=0;entryDy=0;entryPerimeter=0;" edge="1" parent="1" source="44" target="47">
                    <mxGeometry width="50" height="50" relative="1" as="geometry">
                        <mxPoint x="-280" y="1350" as="sourcePoint"/>
                        <mxPoint x="-620" y="1512" as="targetPoint"/>
                    </mxGeometry>
                </mxCell>
                <mxCell id="47" value="&lt;meta charset=&quot;utf-8&quot;&gt;&lt;div style=&quot;color: rgb(173, 186, 199); background-color: rgb(34, 39, 46); font-family: &amp;quot;JetBrains Mono&amp;quot;, Consolas, &amp;quot;Courier New&amp;quot;, monospace, Menlo, Monaco, &amp;quot;Courier New&amp;quot;, monospace; font-weight: normal; font-size: 12px; line-height: 17px;&quot;&gt;&lt;div&gt;&lt;span style=&quot;color: #f47067;&quot;&gt;def&lt;/span&gt;&lt;span style=&quot;color: #adbac7;&quot;&gt; &lt;/span&gt;&lt;span style=&quot;color: #dcbdfb;&quot;&gt;mergesort&lt;/span&gt;&lt;span style=&quot;color: #adbac7;&quot;&gt;(&lt;/span&gt;&lt;span style=&quot;color: #f69d50;&quot;&gt;arr&lt;/span&gt;&lt;span style=&quot;color: #adbac7;&quot;&gt;:&lt;/span&gt;&lt;span style=&quot;color: #f69d50;&quot;&gt;list&lt;/span&gt;&lt;span style=&quot;color: #adbac7;&quot;&gt;)-&amp;gt;&lt;/span&gt;&lt;span style=&quot;color: #f69d50;&quot;&gt;list&lt;/span&gt;&lt;span style=&quot;color: #adbac7;&quot;&gt;:&lt;/span&gt;&lt;/div&gt;&lt;/div&gt;" style="rounded=1;whiteSpace=wrap;html=1;" vertex="1" parent="1">
                    <mxGeometry x="-2184" y="310" width="500" height="30" as="geometry"/>
                </mxCell>
                <mxCell id="349" style="edgeStyle=none;html=1;exitX=0.5;exitY=1;exitDx=0;exitDy=0;fontSize=20;" edge="1" parent="1" source="49" target="47">
                    <mxGeometry relative="1" as="geometry"/>
                </mxCell>
                <mxCell id="49" value="[5]" style="whiteSpace=wrap;html=1;rounded=1;" vertex="1" parent="1">
                    <mxGeometry x="-2000" y="210" width="120" height="40" as="geometry"/>
                </mxCell>
                <mxCell id="50" value="" style="edgeStyle=none;html=1;" edge="1" parent="1" source="51" target="52">
                    <mxGeometry relative="1" as="geometry"/>
                </mxCell>
                <mxCell id="51" value="найти длину" style="rounded=1;whiteSpace=wrap;html=1;" vertex="1" parent="1">
                    <mxGeometry x="-2188" y="340" width="120" height="60" as="geometry"/>
                </mxCell>
                <mxCell id="52" value="1" style="whiteSpace=wrap;html=1;rounded=1;" vertex="1" parent="1">
                    <mxGeometry x="-1994" y="340" width="120" height="60" as="geometry"/>
                </mxCell>
                <mxCell id="53" value="" style="edgeStyle=none;html=1;" edge="1" parent="1">
                    <mxGeometry relative="1" as="geometry">
                        <mxPoint x="-2068" y="450" as="sourcePoint"/>
                        <mxPoint x="-1994" y="450" as="targetPoint"/>
                    </mxGeometry>
                </mxCell>
                <mxCell id="54" value="проверка на базовый случай" style="rounded=1;whiteSpace=wrap;html=1;" vertex="1" parent="1">
                    <mxGeometry x="-2184" y="405" width="120" height="60" as="geometry"/>
                </mxCell>
                <mxCell id="55" value="True" style="whiteSpace=wrap;html=1;rounded=1;" vertex="1" parent="1">
                    <mxGeometry x="-1992" y="405" width="120" height="60" as="geometry"/>
                </mxCell>
                <mxCell id="66" value="выполнен бзовый случай, дальше не выполняем висит значение 5&lt;br&gt;подымаемся на уровень выше&amp;nbsp;" style="shape=ext;double=1;rounded=1;whiteSpace=wrap;html=1;" vertex="1" parent="1">
                    <mxGeometry x="-2320" y="339" width="120" height="126" as="geometry"/>
                </mxCell>
                <mxCell id="69" style="edgeStyle=none;html=1;exitX=1;exitY=0.25;exitDx=0;exitDy=0;entryX=0.5;entryY=0;entryDx=0;entryDy=0;fontSize=20;fillColor=#008a00;strokeColor=#005700;" edge="1" parent="1" source="68" target="44">
                    <mxGeometry relative="1" as="geometry">
                        <Array as="points">
                            <mxPoint x="-1360" y="340"/>
                        </Array>
                    </mxGeometry>
                </mxCell>
                <mxCell id="68" value="возвращаем значение 5" style="shape=step;perimeter=stepPerimeter;whiteSpace=wrap;html=1;fixedSize=1;fontSize=20;" vertex="1" parent="1">
                    <mxGeometry x="-2170" y="480.5" width="320" height="80" as="geometry"/>
                </mxCell>
                <mxCell id="70" value="" style="endArrow=classic;html=1;exitX=0.75;exitY=1;exitDx=0;exitDy=0;fillColor=#a20025;strokeColor=#6F0000;entryX=0.047;entryY=-0.123;entryDx=0;entryDy=0;entryPerimeter=0;" edge="1" parent="1" source="71" target="73">
                    <mxGeometry width="50" height="50" relative="1" as="geometry">
                        <mxPoint x="100" y="1420" as="sourcePoint"/>
                        <mxPoint x="-190" y="840" as="targetPoint"/>
                        <Array as="points">
                            <mxPoint x="-700" y="210"/>
                            <mxPoint x="-590" y="230"/>
                        </Array>
                    </mxGeometry>
                </mxCell>
                <mxCell id="71" value="" style="shape=curlyBracket;whiteSpace=wrap;html=1;rounded=1;flipH=1;labelPosition=right;verticalLabelPosition=middle;align=left;verticalAlign=middle;rotation=90;" vertex="1" parent="1">
                    <mxGeometry x="-854" y="90" width="20" height="120" as="geometry"/>
                </mxCell>
                <mxCell id="72" value="4" style="ellipse;shape=doubleEllipse;whiteSpace=wrap;html=1;aspect=fixed;" vertex="1" parent="1">
                    <mxGeometry x="-156" y="210" width="80" height="80" as="geometry"/>
                </mxCell>
                <mxCell id="73" value="&lt;meta charset=&quot;utf-8&quot;&gt;&lt;div style=&quot;color: rgb(173, 186, 199); background-color: rgb(34, 39, 46); font-family: &amp;quot;JetBrains Mono&amp;quot;, Consolas, &amp;quot;Courier New&amp;quot;, monospace, Menlo, Monaco, &amp;quot;Courier New&amp;quot;, monospace; font-weight: normal; font-size: 12px; line-height: 17px;&quot;&gt;&lt;div&gt;&lt;span style=&quot;color: #f47067;&quot;&gt;def&lt;/span&gt;&lt;span style=&quot;color: #adbac7;&quot;&gt; &lt;/span&gt;&lt;span style=&quot;color: #dcbdfb;&quot;&gt;mergesort&lt;/span&gt;&lt;span style=&quot;color: #adbac7;&quot;&gt;(&lt;/span&gt;&lt;span style=&quot;color: #f69d50;&quot;&gt;arr&lt;/span&gt;&lt;span style=&quot;color: #adbac7;&quot;&gt;:&lt;/span&gt;&lt;span style=&quot;color: #f69d50;&quot;&gt;list&lt;/span&gt;&lt;span style=&quot;color: #adbac7;&quot;&gt;)-&amp;gt;&lt;/span&gt;&lt;span style=&quot;color: #f69d50;&quot;&gt;list&lt;/span&gt;&lt;span style=&quot;color: #adbac7;&quot;&gt;:&lt;/span&gt;&lt;/div&gt;&lt;/div&gt;" style="rounded=1;whiteSpace=wrap;html=1;" vertex="1" parent="1">
                    <mxGeometry x="-550" y="294" width="500" height="30" as="geometry"/>
                </mxCell>
                <mxCell id="75" style="edgeStyle=none;html=1;exitX=0.5;exitY=1;exitDx=0;exitDy=0;entryX=0.54;entryY=0;entryDx=0;entryDy=0;entryPerimeter=0;fontSize=20;" edge="1" parent="1" source="74" target="73">
                    <mxGeometry relative="1" as="geometry"/>
                </mxCell>
                <mxCell id="74" value="[7, 3]" style="whiteSpace=wrap;html=1;rounded=1;" vertex="1" parent="1">
                    <mxGeometry x="-340" y="210" width="120" height="60" as="geometry"/>
                </mxCell>
                <mxCell id="89" value="" style="edgeStyle=none;html=1;" edge="1" parent="1" source="90" target="91">
                    <mxGeometry relative="1" as="geometry"/>
                </mxCell>
                <mxCell id="90" value="найти длину" style="rounded=1;whiteSpace=wrap;html=1;" vertex="1" parent="1">
                    <mxGeometry x="-554" y="325" width="120" height="60" as="geometry"/>
                </mxCell>
                <mxCell id="91" value="2" style="whiteSpace=wrap;html=1;rounded=1;" vertex="1" parent="1">
                    <mxGeometry x="-360" y="325" width="120" height="60" as="geometry"/>
                </mxCell>
                <mxCell id="92" value="" style="edgeStyle=none;html=1;" edge="1" parent="1" source="93" target="94">
                    <mxGeometry relative="1" as="geometry"/>
                </mxCell>
                <mxCell id="93" value="проверка на базовый случай" style="rounded=1;whiteSpace=wrap;html=1;" vertex="1" parent="1">
                    <mxGeometry x="-554" y="405" width="120" height="60" as="geometry"/>
                </mxCell>
                <mxCell id="94" value="False" style="whiteSpace=wrap;html=1;rounded=1;" vertex="1" parent="1">
                    <mxGeometry x="-360" y="405" width="120" height="60" as="geometry"/>
                </mxCell>
                <mxCell id="95" value="" style="edgeStyle=none;html=1;" edge="1" parent="1" source="96" target="101">
                    <mxGeometry relative="1" as="geometry"/>
                </mxCell>
                <mxCell id="96" value="найти средину&amp;nbsp;" style="rounded=1;whiteSpace=wrap;html=1;" vertex="1" parent="1">
                    <mxGeometry x="-552" y="495" width="120" height="60" as="geometry"/>
                </mxCell>
                <mxCell id="97" value="" style="edgeStyle=none;html=1;" edge="1" parent="1" source="98" target="102">
                    <mxGeometry relative="1" as="geometry"/>
                </mxCell>
                <mxCell id="98" value="найти левую часть" style="rounded=1;whiteSpace=wrap;html=1;" vertex="1" parent="1">
                    <mxGeometry x="-554" y="585" width="120" height="60" as="geometry"/>
                </mxCell>
                <mxCell id="99" value="" style="edgeStyle=none;html=1;" edge="1" parent="1" source="100" target="103">
                    <mxGeometry relative="1" as="geometry"/>
                </mxCell>
                <mxCell id="100" value="найти правую часть" style="rounded=1;whiteSpace=wrap;html=1;" vertex="1" parent="1">
                    <mxGeometry x="-554" y="675" width="120" height="60" as="geometry"/>
                </mxCell>
                <mxCell id="101" value="index_1" style="whiteSpace=wrap;html=1;rounded=1;" vertex="1" parent="1">
                    <mxGeometry x="-360" y="495" width="120" height="60" as="geometry"/>
                </mxCell>
                <mxCell id="102" value="[7]" style="whiteSpace=wrap;html=1;rounded=1;" vertex="1" parent="1">
                    <mxGeometry x="-360" y="585" width="120" height="60" as="geometry"/>
                </mxCell>
                <mxCell id="103" value="[3]" style="whiteSpace=wrap;html=1;rounded=1;" vertex="1" parent="1">
                    <mxGeometry x="-360" y="675" width="120" height="60" as="geometry"/>
                </mxCell>
                <mxCell id="104" value="&lt;meta charset=&quot;utf-8&quot;&gt;&lt;div style=&quot;color: rgb(173, 186, 199); background-color: rgb(34, 39, 46); font-family: &amp;quot;JetBrains Mono&amp;quot;, Consolas, &amp;quot;Courier New&amp;quot;, monospace, Menlo, Monaco, &amp;quot;Courier New&amp;quot;, monospace; font-weight: normal; font-size: 12px; line-height: 17px;&quot;&gt;&lt;div&gt;&lt;span style=&quot;color: #f47067;&quot;&gt;return&lt;/span&gt;&lt;span style=&quot;color: #adbac7;&quot;&gt; &lt;/span&gt;&lt;span style=&quot;color: #dcbdfb;&quot;&gt;merge&lt;/span&gt;&lt;span style=&quot;color: #adbac7;&quot;&gt;(&lt;/span&gt;&lt;span style=&quot;color: #dcbdfb;&quot;&gt;mergesort&lt;/span&gt;&lt;span style=&quot;color: #adbac7;&quot;&gt;(&lt;/span&gt;&lt;span style=&quot;color: #adbac7;&quot;&gt;left_half&lt;/span&gt;&lt;span style=&quot;color: #adbac7;&quot;&gt;), &lt;/span&gt;&lt;span style=&quot;color: #dcbdfb;&quot;&gt;mergesort&lt;/span&gt;&lt;span style=&quot;color: #adbac7;&quot;&gt;(&lt;/span&gt;&lt;span style=&quot;color: #adbac7;&quot;&gt;right_half&lt;/span&gt;&lt;span style=&quot;color: #adbac7;&quot;&gt;))&lt;/span&gt;&lt;/div&gt;&lt;/div&gt;" style="rounded=1;whiteSpace=wrap;html=1;" vertex="1" parent="1">
                    <mxGeometry x="-570" y="745.5" width="480" height="59.5" as="geometry"/>
                </mxCell>
                <mxCell id="350" style="edgeStyle=none;html=1;exitX=0.75;exitY=1;exitDx=0;exitDy=0;entryX=0;entryY=0;entryDx=0;entryDy=0;fontSize=20;fillColor=#a20025;strokeColor=#6F0000;" edge="1" parent="1" source="105" target="109">
                    <mxGeometry relative="1" as="geometry">
                        <Array as="points">
                            <mxPoint x="-630" y="890"/>
                        </Array>
                    </mxGeometry>
                </mxCell>
                <mxCell id="105" value="" style="shape=curlyBracket;whiteSpace=wrap;html=1;rounded=1;flipH=1;labelPosition=right;verticalLabelPosition=middle;align=left;verticalAlign=middle;rotation=90;" vertex="1" parent="1">
                    <mxGeometry x="-370" y="755" width="20" height="120" as="geometry"/>
                </mxCell>
                <mxCell id="107" value="[7]" style="whiteSpace=wrap;html=1;rounded=1;" vertex="1" parent="1">
                    <mxGeometry x="-650" y="950.5" width="120" height="60" as="geometry"/>
                </mxCell>
                <mxCell id="108" value="5" style="ellipse;shape=doubleEllipse;whiteSpace=wrap;html=1;aspect=fixed;" vertex="1" parent="1">
                    <mxGeometry x="-420" y="950.5" width="80" height="80" as="geometry"/>
                </mxCell>
                <mxCell id="109" value="&lt;meta charset=&quot;utf-8&quot;&gt;&lt;div style=&quot;color: rgb(173, 186, 199); background-color: rgb(34, 39, 46); font-family: &amp;quot;JetBrains Mono&amp;quot;, Consolas, &amp;quot;Courier New&amp;quot;, monospace, Menlo, Monaco, &amp;quot;Courier New&amp;quot;, monospace; font-weight: normal; font-size: 12px; line-height: 17px;&quot;&gt;&lt;div&gt;&lt;span style=&quot;color: #f47067;&quot;&gt;def&lt;/span&gt;&lt;span style=&quot;color: #adbac7;&quot;&gt; &lt;/span&gt;&lt;span style=&quot;color: #dcbdfb;&quot;&gt;mergesort&lt;/span&gt;&lt;span style=&quot;color: #adbac7;&quot;&gt;(&lt;/span&gt;&lt;span style=&quot;color: #f69d50;&quot;&gt;arr&lt;/span&gt;&lt;span style=&quot;color: #adbac7;&quot;&gt;:&lt;/span&gt;&lt;span style=&quot;color: #f69d50;&quot;&gt;list&lt;/span&gt;&lt;span style=&quot;color: #adbac7;&quot;&gt;)-&amp;gt;&lt;/span&gt;&lt;span style=&quot;color: #f69d50;&quot;&gt;list&lt;/span&gt;&lt;span style=&quot;color: #adbac7;&quot;&gt;:&lt;/span&gt;&lt;/div&gt;&lt;/div&gt;" style="rounded=1;whiteSpace=wrap;html=1;" vertex="1" parent="1">
                    <mxGeometry x="-850" y="1030.5" width="500" height="30" as="geometry"/>
                </mxCell>
                <mxCell id="110" value="" style="edgeStyle=none;html=1;" edge="1" parent="1" source="111" target="112">
                    <mxGeometry relative="1" as="geometry"/>
                </mxCell>
                <mxCell id="111" value="найти длину" style="rounded=1;whiteSpace=wrap;html=1;" vertex="1" parent="1">
                    <mxGeometry x="-862" y="1066" width="120" height="60" as="geometry"/>
                </mxCell>
                <mxCell id="112" value="1" style="whiteSpace=wrap;html=1;rounded=1;" vertex="1" parent="1">
                    <mxGeometry x="-668" y="1066" width="120" height="60" as="geometry"/>
                </mxCell>
                <mxCell id="113" value="" style="edgeStyle=none;html=1;" edge="1" parent="1" source="114" target="115">
                    <mxGeometry relative="1" as="geometry"/>
                </mxCell>
                <mxCell id="114" value="проверка на базовый случай" style="rounded=1;whiteSpace=wrap;html=1;" vertex="1" parent="1">
                    <mxGeometry x="-862" y="1146" width="120" height="60" as="geometry"/>
                </mxCell>
                <mxCell id="115" value="True" style="whiteSpace=wrap;html=1;rounded=1;" vertex="1" parent="1">
                    <mxGeometry x="-668" y="1146" width="120" height="60" as="geometry"/>
                </mxCell>
                <mxCell id="125" value="выполнен бзовый случай, дальше не выполняем висит значение 7&lt;br&gt;подымаемся на уровень выше&amp;nbsp;" style="shape=ext;double=1;rounded=1;whiteSpace=wrap;html=1;" vertex="1" parent="1">
                    <mxGeometry x="-1002" y="1074.5" width="120" height="126" as="geometry"/>
                </mxCell>
                <mxCell id="354" style="edgeStyle=none;html=1;exitX=0.25;exitY=0.2;exitDx=0;exitDy=0;exitPerimeter=0;entryX=0;entryY=0.25;entryDx=0;entryDy=0;fontSize=20;fillColor=#a20025;strokeColor=#6F0000;" edge="1" parent="1" source="128" target="133">
                    <mxGeometry relative="1" as="geometry">
                        <Array as="points">
                            <mxPoint x="-110" y="950"/>
                        </Array>
                    </mxGeometry>
                </mxCell>
                <mxCell id="128" value="" style="shape=curlyBracket;whiteSpace=wrap;html=1;rounded=1;flipH=1;labelPosition=right;verticalLabelPosition=middle;align=left;verticalAlign=middle;rotation=90;" vertex="1" parent="1">
                    <mxGeometry x="-190" y="755" width="20" height="120" as="geometry"/>
                </mxCell>
                <mxCell id="131" value="6" style="ellipse;shape=doubleEllipse;whiteSpace=wrap;html=1;aspect=fixed;" vertex="1" parent="1">
                    <mxGeometry x="8" y="920" width="80" height="80" as="geometry"/>
                </mxCell>
                <mxCell id="134" style="edgeStyle=none;html=1;exitX=0.5;exitY=1;exitDx=0;exitDy=0;entryX=0.54;entryY=0;entryDx=0;entryDy=0;entryPerimeter=0;fontSize=20;" edge="1" parent="1" source="132" target="133">
                    <mxGeometry relative="1" as="geometry"/>
                </mxCell>
                <mxCell id="132" value="[3]" style="whiteSpace=wrap;html=1;rounded=1;" vertex="1" parent="1">
                    <mxGeometry x="228" y="930" width="120" height="42" as="geometry"/>
                </mxCell>
                <mxCell id="133" value="&lt;meta charset=&quot;utf-8&quot;&gt;&lt;div style=&quot;color: rgb(173, 186, 199); background-color: rgb(34, 39, 46); font-family: &amp;quot;JetBrains Mono&amp;quot;, Consolas, &amp;quot;Courier New&amp;quot;, monospace, Menlo, Monaco, &amp;quot;Courier New&amp;quot;, monospace; font-weight: normal; font-size: 12px; line-height: 17px;&quot;&gt;&lt;div&gt;&lt;span style=&quot;color: #f47067;&quot;&gt;def&lt;/span&gt;&lt;span style=&quot;color: #adbac7;&quot;&gt; &lt;/span&gt;&lt;span style=&quot;color: #dcbdfb;&quot;&gt;mergesort&lt;/span&gt;&lt;span style=&quot;color: #adbac7;&quot;&gt;(&lt;/span&gt;&lt;span style=&quot;color: #f69d50;&quot;&gt;arr&lt;/span&gt;&lt;span style=&quot;color: #adbac7;&quot;&gt;:&lt;/span&gt;&lt;span style=&quot;color: #f69d50;&quot;&gt;list&lt;/span&gt;&lt;span style=&quot;color: #adbac7;&quot;&gt;)-&amp;gt;&lt;/span&gt;&lt;span style=&quot;color: #f69d50;&quot;&gt;list&lt;/span&gt;&lt;span style=&quot;color: #adbac7;&quot;&gt;:&lt;/span&gt;&lt;/div&gt;&lt;/div&gt;" style="rounded=1;whiteSpace=wrap;html=1;" vertex="1" parent="1">
                    <mxGeometry x="18" y="1022" width="500" height="30" as="geometry"/>
                </mxCell>
                <mxCell id="135" value="" style="edgeStyle=none;html=1;" edge="1" parent="1" source="136" target="137">
                    <mxGeometry relative="1" as="geometry"/>
                </mxCell>
                <mxCell id="136" value="найти длину" style="rounded=1;whiteSpace=wrap;html=1;" vertex="1" parent="1">
                    <mxGeometry x="124" y="1082" width="120" height="60" as="geometry"/>
                </mxCell>
                <mxCell id="137" value="1" style="whiteSpace=wrap;html=1;rounded=1;" vertex="1" parent="1">
                    <mxGeometry x="318" y="1082" width="120" height="60" as="geometry"/>
                </mxCell>
                <mxCell id="138" value="" style="edgeStyle=none;html=1;" edge="1" parent="1" source="139" target="140">
                    <mxGeometry relative="1" as="geometry"/>
                </mxCell>
                <mxCell id="139" value="проверка на базовый случай" style="rounded=1;whiteSpace=wrap;html=1;" vertex="1" parent="1">
                    <mxGeometry x="124" y="1162" width="120" height="60" as="geometry"/>
                </mxCell>
                <mxCell id="140" value="True" style="whiteSpace=wrap;html=1;rounded=1;" vertex="1" parent="1">
                    <mxGeometry x="318" y="1162" width="120" height="60" as="geometry"/>
                </mxCell>
                <mxCell id="143" value="" style="edgeStyle=none;html=1;" edge="1" parent="1" source="144">
                    <mxGeometry relative="1" as="geometry">
                        <mxPoint x="890" y="2840" as="targetPoint"/>
                    </mxGeometry>
                </mxCell>
                <mxCell id="353" style="edgeStyle=none;html=1;exitX=0;exitY=0.25;exitDx=0;exitDy=0;entryX=0.75;entryY=1;entryDx=0;entryDy=0;fontSize=20;fillColor=#008a00;strokeColor=#005700;" edge="1" parent="1" source="150" target="128">
                    <mxGeometry relative="1" as="geometry">
                        <Array as="points">
                            <mxPoint x="-210" y="1200"/>
                        </Array>
                    </mxGeometry>
                </mxCell>
                <mxCell id="150" value="возвращаем значение 3" style="shape=step;perimeter=stepPerimeter;whiteSpace=wrap;html=1;fixedSize=1;fontSize=20;" vertex="1" parent="1">
                    <mxGeometry x="170" y="1230" width="268" height="80" as="geometry"/>
                </mxCell>
                <mxCell id="151" value="выполнен бзовый случай, дальше не выполняем висит значение 3&lt;br&gt;подымаемся на уровень выше&amp;nbsp;" style="shape=ext;double=1;rounded=1;whiteSpace=wrap;html=1;" vertex="1" parent="1">
                    <mxGeometry y="1084" width="120" height="126" as="geometry"/>
                </mxCell>
                <mxCell id="154" value="" style="shape=image;html=1;verticalLabelPosition=bottom;verticalAlign=top;imageAspect=1;aspect=fixed;image=img/clipart/Gear_128x128.png;fontSize=20;" vertex="1" parent="1">
                    <mxGeometry x="-79" y="1409" width="52" height="61" as="geometry"/>
                </mxCell>
                <mxCell id="155" value="выполнение функции слияние после того как розбили на одиночные елементы" style="text;html=1;strokeColor=none;fillColor=none;align=center;verticalAlign=middle;whiteSpace=wrap;rounded=0;fontSize=20;" vertex="1" parent="1">
                    <mxGeometry x="-1" y="1399.5" width="224" height="120" as="geometry"/>
                </mxCell>
                <mxCell id="157" value="7" style="ellipse;shape=doubleEllipse;whiteSpace=wrap;html=1;aspect=fixed;" vertex="1" parent="1">
                    <mxGeometry x="-591.5" y="1585" width="80" height="80" as="geometry"/>
                </mxCell>
                <mxCell id="158" value="&lt;meta charset=&quot;utf-8&quot;&gt;&lt;div style=&quot;color: rgb(173, 186, 199); background-color: rgb(34, 39, 46); font-family: &amp;quot;JetBrains Mono&amp;quot;, Consolas, &amp;quot;Courier New&amp;quot;, monospace, Menlo, Monaco, &amp;quot;Courier New&amp;quot;, monospace; font-weight: normal; font-size: 12px; line-height: 17px;&quot;&gt;&lt;div&gt;&lt;span style=&quot;color: #f47067;&quot;&gt;def&lt;/span&gt;&lt;span style=&quot;color: #adbac7;&quot;&gt; &lt;/span&gt;&lt;span style=&quot;color: #dcbdfb;&quot;&gt;merge&lt;/span&gt;&lt;span style=&quot;color: #adbac7;&quot;&gt;(&lt;/span&gt;&lt;span style=&quot;color: #f69d50;&quot;&gt;left_part&lt;/span&gt;&lt;span style=&quot;color: #adbac7;&quot;&gt;:&lt;/span&gt;&lt;span style=&quot;color: #f69d50;&quot;&gt;list&lt;/span&gt;&lt;span style=&quot;color: #adbac7;&quot;&gt;, &lt;/span&gt;&lt;span style=&quot;color: #f69d50;&quot;&gt;right_part&lt;/span&gt;&lt;span style=&quot;color: #adbac7;&quot;&gt;:&lt;/span&gt;&lt;span style=&quot;color: #f69d50;&quot;&gt;list&lt;/span&gt;&lt;span style=&quot;color: #adbac7;&quot;&gt;)-&amp;gt;&lt;/span&gt;&lt;span style=&quot;color: #f69d50;&quot;&gt;list&lt;/span&gt;&lt;span style=&quot;color: #adbac7;&quot;&gt;:&lt;/span&gt;&lt;/div&gt;&lt;/div&gt;" style="rounded=1;whiteSpace=wrap;html=1;fontSize=20;" vertex="1" parent="1">
                    <mxGeometry x="-511.5" y="1665" width="430" height="60" as="geometry"/>
                </mxCell>
                <mxCell id="161" style="edgeStyle=none;html=1;exitX=0.5;exitY=1;exitDx=0;exitDy=0;entryX=0.358;entryY=0.167;entryDx=0;entryDy=0;entryPerimeter=0;fontSize=20;" edge="1" parent="1" source="159" target="158">
                    <mxGeometry relative="1" as="geometry"/>
                </mxCell>
                <mxCell id="159" value="[7]" style="whiteSpace=wrap;html=1;rounded=1;" vertex="1" parent="1">
                    <mxGeometry x="-417.5" y="1555" width="120" height="60" as="geometry"/>
                </mxCell>
                <mxCell id="162" style="edgeStyle=none;html=1;exitX=0.5;exitY=1;exitDx=0;exitDy=0;entryX=0.698;entryY=0.167;entryDx=0;entryDy=0;entryPerimeter=0;fontSize=20;" edge="1" parent="1" source="160" target="158">
                    <mxGeometry relative="1" as="geometry"/>
                </mxCell>
                <mxCell id="160" value="[3]" style="whiteSpace=wrap;html=1;rounded=1;" vertex="1" parent="1">
                    <mxGeometry x="-251.5" y="1555" width="120" height="60" as="geometry"/>
                </mxCell>
                <mxCell id="165" value="" style="edgeStyle=none;html=1;fontSize=20;" edge="1" parent="1" source="163" target="164">
                    <mxGeometry relative="1" as="geometry"/>
                </mxCell>
                <mxCell id="163" value="merged" style="rounded=1;whiteSpace=wrap;html=1;fontSize=20;" vertex="1" parent="1">
                    <mxGeometry x="-471.5" y="1755" width="130" height="60" as="geometry"/>
                </mxCell>
                <mxCell id="164" value="[&amp;nbsp; ]" style="whiteSpace=wrap;html=1;fontSize=20;rounded=1;" vertex="1" parent="1">
                    <mxGeometry x="-256.5" y="1755" width="120" height="60" as="geometry"/>
                </mxCell>
                <mxCell id="169" value="" style="edgeStyle=none;html=1;fontSize=20;" edge="1" parent="1" source="166" target="168">
                    <mxGeometry relative="1" as="geometry"/>
                </mxCell>
                <mxCell id="166" value="left index" style="rounded=1;whiteSpace=wrap;html=1;fontSize=20;" vertex="1" parent="1">
                    <mxGeometry x="-466.5" y="1835" width="120" height="60" as="geometry"/>
                </mxCell>
                <mxCell id="171" value="" style="edgeStyle=none;html=1;fontSize=20;" edge="1" parent="1" source="167" target="170">
                    <mxGeometry relative="1" as="geometry"/>
                </mxCell>
                <mxCell id="167" value="right rindex" style="rounded=1;whiteSpace=wrap;html=1;fontSize=20;" vertex="1" parent="1">
                    <mxGeometry x="-461.5" y="1925" width="120" height="60" as="geometry"/>
                </mxCell>
                <mxCell id="168" value="0" style="whiteSpace=wrap;html=1;fontSize=20;rounded=1;" vertex="1" parent="1">
                    <mxGeometry x="-256.5" y="1835" width="120" height="60" as="geometry"/>
                </mxCell>
                <mxCell id="170" value="0" style="whiteSpace=wrap;html=1;fontSize=20;rounded=1;" vertex="1" parent="1">
                    <mxGeometry x="-256.5" y="1925" width="120" height="60" as="geometry"/>
                </mxCell>
                <mxCell id="184" style="edgeStyle=none;html=1;exitX=0;exitY=0.75;exitDx=0;exitDy=0;fontSize=20;" edge="1" parent="1" source="172">
                    <mxGeometry relative="1" as="geometry">
                        <mxPoint x="-619" y="2390" as="targetPoint"/>
                        <Array as="points">
                            <mxPoint x="-699" y="2230"/>
                        </Array>
                    </mxGeometry>
                </mxCell>
                <mxCell id="172" value="&lt;meta charset=&quot;utf-8&quot;&gt;&lt;div style=&quot;color: rgb(173, 186, 199); background-color: rgb(34, 39, 46); font-family: &amp;quot;JetBrains Mono&amp;quot;, Consolas, &amp;quot;Courier New&amp;quot;, monospace, Menlo, Monaco, &amp;quot;Courier New&amp;quot;, monospace; font-weight: normal; font-size: 12px; line-height: 17px;&quot;&gt;&lt;div&gt;&lt;span style=&quot;color: #f47067;&quot;&gt;while&lt;/span&gt;&lt;span style=&quot;color: #adbac7;&quot;&gt; &lt;/span&gt;&lt;span style=&quot;color: #adbac7;&quot;&gt;left_index&lt;/span&gt;&lt;span style=&quot;color: #adbac7;&quot;&gt; &lt;/span&gt;&lt;span style=&quot;color: #f47067;&quot;&gt;&amp;lt;&lt;/span&gt;&lt;span style=&quot;color: #adbac7;&quot;&gt; &lt;/span&gt;&lt;span style=&quot;color: #dcbdfb;&quot;&gt;len&lt;/span&gt;&lt;span style=&quot;color: #adbac7;&quot;&gt;(&lt;/span&gt;&lt;span style=&quot;color: #f69d50;&quot;&gt;left_part&lt;/span&gt;&lt;span style=&quot;color: #adbac7;&quot;&gt;) &lt;/span&gt;&lt;span style=&quot;color: #f47067;&quot;&gt;and&lt;/span&gt;&lt;span style=&quot;color: #adbac7;&quot;&gt; &lt;/span&gt;&lt;span style=&quot;color: #adbac7;&quot;&gt;right_index&lt;/span&gt;&lt;span style=&quot;color: #adbac7;&quot;&gt; &lt;/span&gt;&lt;span style=&quot;color: #f47067;&quot;&gt;&amp;lt;&lt;/span&gt;&lt;span style=&quot;color: #adbac7;&quot;&gt; &lt;/span&gt;&lt;span style=&quot;color: #dcbdfb;&quot;&gt;len&lt;/span&gt;&lt;span style=&quot;color: #adbac7;&quot;&gt;(&lt;/span&gt;&lt;span style=&quot;color: #f69d50;&quot;&gt;right_part&lt;/span&gt;&lt;span style=&quot;color: #adbac7;&quot;&gt;):&lt;/span&gt;&lt;/div&gt;&lt;/div&gt;" style="rounded=1;whiteSpace=wrap;html=1;fontSize=20;" vertex="1" parent="1">
                    <mxGeometry x="-609" y="2010" width="546" height="60" as="geometry"/>
                </mxCell>
                <mxCell id="173" value="&lt;meta charset=&quot;utf-8&quot;&gt;&lt;div style=&quot;color: rgb(173, 186, 199); background-color: rgb(34, 39, 46); font-family: &amp;quot;JetBrains Mono&amp;quot;, Consolas, &amp;quot;Courier New&amp;quot;, monospace, Menlo, Monaco, &amp;quot;Courier New&amp;quot;, monospace; font-weight: normal; font-size: 12px; line-height: 17px;&quot;&gt;&lt;div&gt;&lt;span style=&quot;color: #f47067;&quot;&gt;if&lt;/span&gt;&lt;span style=&quot;color: #adbac7;&quot;&gt; &lt;/span&gt;&lt;span style=&quot;color: #f69d50;&quot;&gt;left_part&lt;/span&gt;&lt;span style=&quot;color: #adbac7;&quot;&gt;[&lt;/span&gt;&lt;span style=&quot;color: #adbac7;&quot;&gt;left_index&lt;/span&gt;&lt;span style=&quot;color: #adbac7;&quot;&gt;] &lt;/span&gt;&lt;span style=&quot;color: #f47067;&quot;&gt;&amp;lt;=&lt;/span&gt;&lt;span style=&quot;color: #adbac7;&quot;&gt; &lt;/span&gt;&lt;span style=&quot;color: #f69d50;&quot;&gt;right_part&lt;/span&gt;&lt;span style=&quot;color: #adbac7;&quot;&gt;[&lt;/span&gt;&lt;span style=&quot;color: #adbac7;&quot;&gt;right_index&lt;/span&gt;&lt;span style=&quot;color: #adbac7;&quot;&gt;]:&lt;/span&gt;&lt;/div&gt;&lt;div&gt;&lt;span style=&quot;color: #adbac7;&quot;&gt;            &lt;/span&gt;&lt;span style=&quot;color: #adbac7;&quot;&gt;merged&lt;/span&gt;&lt;span style=&quot;color: #adbac7;&quot;&gt;.&lt;/span&gt;&lt;span style=&quot;color: #dcbdfb;&quot;&gt;append&lt;/span&gt;&lt;span style=&quot;color: #adbac7;&quot;&gt;(&lt;/span&gt;&lt;span style=&quot;color: #f69d50;&quot;&gt;left_part&lt;/span&gt;&lt;span style=&quot;color: #adbac7;&quot;&gt;[&lt;/span&gt;&lt;span style=&quot;color: #adbac7;&quot;&gt;left_index&lt;/span&gt;&lt;span style=&quot;color: #adbac7;&quot;&gt;])&lt;/span&gt;&lt;/div&gt;&lt;div&gt;&lt;span style=&quot;color: #adbac7;&quot;&gt;            &lt;/span&gt;&lt;span style=&quot;color: #adbac7;&quot;&gt;left_index&lt;/span&gt;&lt;span style=&quot;color: #adbac7;&quot;&gt; &lt;/span&gt;&lt;span style=&quot;color: #f47067;&quot;&gt;+=&lt;/span&gt;&lt;span style=&quot;color: #adbac7;&quot;&gt; &lt;/span&gt;&lt;span style=&quot;color: #6cb6ff;&quot;&gt;1&lt;/span&gt;&lt;/div&gt;&lt;/div&gt;" style="rounded=1;whiteSpace=wrap;html=1;fontSize=20;" vertex="1" parent="1">
                    <mxGeometry x="-523" y="2090" width="450" height="60" as="geometry"/>
                </mxCell>
                <mxCell id="175" value="" style="ellipse;whiteSpace=wrap;html=1;strokeWidth=2;fillWeight=2;hachureGap=8;fillColor=#990000;fillStyle=dots;sketch=1;fontSize=20;" vertex="1" parent="1">
                    <mxGeometry x="-49" y="2090" width="120" height="60" as="geometry"/>
                </mxCell>
                <mxCell id="176" value="&lt;meta charset=&quot;utf-8&quot;&gt;&lt;div style=&quot;color: rgb(173, 186, 199); background-color: rgb(34, 39, 46); font-family: &amp;quot;JetBrains Mono&amp;quot;, Consolas, &amp;quot;Courier New&amp;quot;, monospace, Menlo, Monaco, &amp;quot;Courier New&amp;quot;, monospace; font-weight: normal; font-size: 12px; line-height: 17px;&quot;&gt;&lt;div&gt;&lt;span style=&quot;color: #adbac7;&quot;&gt; &lt;/span&gt;&lt;span style=&quot;color: #f47067;&quot;&gt;else&lt;/span&gt;&lt;span style=&quot;color: #adbac7;&quot;&gt;:&lt;/span&gt;&lt;/div&gt;&lt;div&gt;&lt;span style=&quot;color: #adbac7;&quot;&gt;            &lt;/span&gt;&lt;span style=&quot;color: #adbac7;&quot;&gt;merged&lt;/span&gt;&lt;span style=&quot;color: #adbac7;&quot;&gt;.&lt;/span&gt;&lt;span style=&quot;color: #dcbdfb;&quot;&gt;append&lt;/span&gt;&lt;span style=&quot;color: #adbac7;&quot;&gt;(&lt;/span&gt;&lt;span style=&quot;color: #f69d50;&quot;&gt;right_part&lt;/span&gt;&lt;span style=&quot;color: #adbac7;&quot;&gt;[&lt;/span&gt;&lt;span style=&quot;color: #adbac7;&quot;&gt;right_index&lt;/span&gt;&lt;span style=&quot;color: #adbac7;&quot;&gt;])&lt;/span&gt;&lt;/div&gt;&lt;div&gt;&lt;span style=&quot;color: #adbac7;&quot;&gt;            &lt;/span&gt;&lt;span style=&quot;color: #adbac7;&quot;&gt;right_index&lt;/span&gt;&lt;span style=&quot;color: #adbac7;&quot;&gt; &lt;/span&gt;&lt;span style=&quot;color: #f47067;&quot;&gt;+=&lt;/span&gt;&lt;span style=&quot;color: #adbac7;&quot;&gt; &lt;/span&gt;&lt;span style=&quot;color: #6cb6ff;&quot;&gt;1&lt;/span&gt;&lt;/div&gt;&lt;/div&gt;" style="rounded=1;whiteSpace=wrap;html=1;fontSize=20;" vertex="1" parent="1">
                    <mxGeometry x="-479" y="2180" width="385" height="70" as="geometry"/>
                </mxCell>
                <mxCell id="180" style="edgeStyle=none;html=1;entryX=0;entryY=0.5;entryDx=0;entryDy=0;fontSize=20;" edge="1" parent="1" source="177" target="179">
                    <mxGeometry relative="1" as="geometry"/>
                </mxCell>
                <mxCell id="177" value="" style="rounded=1;whiteSpace=wrap;html=1;strokeWidth=2;fillWeight=4;hachureGap=8;hachureAngle=45;fillColor=#008a00;sketch=1;fontSize=20;fontColor=#ffffff;strokeColor=#005700;" vertex="1" parent="1">
                    <mxGeometry x="-49" y="2185" width="120" height="60" as="geometry"/>
                </mxCell>
                <mxCell id="179" value="[ 3 ]" style="rounded=1;whiteSpace=wrap;html=1;fontSize=20;" vertex="1" parent="1">
                    <mxGeometry x="181" y="2160" width="120" height="60" as="geometry"/>
                </mxCell>
                <mxCell id="181" value="merged" style="rounded=1;whiteSpace=wrap;html=1;fontSize=20;" vertex="1" parent="1">
                    <mxGeometry x="176" y="2090" width="130" height="60" as="geometry"/>
                </mxCell>
                <mxCell id="185" value="" style="shape=image;html=1;verticalLabelPosition=bottom;verticalAlign=top;imageAspect=1;aspect=fixed;image=img/clipart/Gear_128x128.png;fontSize=20;" vertex="1" parent="1">
                    <mxGeometry x="-681" y="2200" width="52" height="61" as="geometry"/>
                </mxCell>
                <mxCell id="186" value="&lt;meta charset=&quot;utf-8&quot;&gt;&lt;div style=&quot;color: rgb(173, 186, 199); background-color: rgb(34, 39, 46); font-family: &amp;quot;JetBrains Mono&amp;quot;, Consolas, &amp;quot;Courier New&amp;quot;, monospace, Menlo, Monaco, &amp;quot;Courier New&amp;quot;, monospace; font-weight: normal; font-size: 12px; line-height: 17px;&quot;&gt;&lt;div&gt;&lt;span style=&quot;color: #f47067;&quot;&gt;while&lt;/span&gt;&lt;span style=&quot;color: #adbac7;&quot;&gt; &lt;/span&gt;&lt;span style=&quot;color: #adbac7;&quot;&gt;left_index&lt;/span&gt;&lt;span style=&quot;color: #adbac7;&quot;&gt; &lt;/span&gt;&lt;span style=&quot;color: #f47067;&quot;&gt;&amp;lt;&lt;/span&gt;&lt;span style=&quot;color: #adbac7;&quot;&gt; &lt;/span&gt;&lt;span style=&quot;color: #dcbdfb;&quot;&gt;len&lt;/span&gt;&lt;span style=&quot;color: #adbac7;&quot;&gt;(&lt;/span&gt;&lt;span style=&quot;color: #f69d50;&quot;&gt;left_part&lt;/span&gt;&lt;span style=&quot;color: #adbac7;&quot;&gt;) &lt;/span&gt;&lt;span style=&quot;color: #f47067;&quot;&gt;and&lt;/span&gt;&lt;span style=&quot;color: #adbac7;&quot;&gt; &lt;/span&gt;&lt;span style=&quot;color: #adbac7;&quot;&gt;right_index&lt;/span&gt;&lt;span style=&quot;color: #adbac7;&quot;&gt; &lt;/span&gt;&lt;span style=&quot;color: #f47067;&quot;&gt;&amp;lt;&lt;/span&gt;&lt;span style=&quot;color: #adbac7;&quot;&gt; &lt;/span&gt;&lt;span style=&quot;color: #dcbdfb;&quot;&gt;len&lt;/span&gt;&lt;span style=&quot;color: #adbac7;&quot;&gt;(&lt;/span&gt;&lt;span style=&quot;color: #f69d50;&quot;&gt;right_part&lt;/span&gt;&lt;span style=&quot;color: #adbac7;&quot;&gt;):&lt;/span&gt;&lt;/div&gt;&lt;/div&gt;" style="rounded=1;whiteSpace=wrap;html=1;fontSize=20;" vertex="1" parent="1">
                    <mxGeometry x="-609" y="2360" width="546" height="60" as="geometry"/>
                </mxCell>
                <mxCell id="187" value="" style="rounded=1;whiteSpace=wrap;html=1;strokeWidth=2;fillWeight=4;hachureGap=8;hachureAngle=45;fillColor=#008a00;sketch=1;fontSize=20;fontColor=#ffffff;strokeColor=#005700;" vertex="1" parent="1">
                    <mxGeometry x="-49" y="2010" width="120" height="60" as="geometry"/>
                </mxCell>
                <mxCell id="189" value="" style="ellipse;whiteSpace=wrap;html=1;strokeWidth=2;fillWeight=2;hachureGap=8;fillColor=#990000;fillStyle=dots;sketch=1;fontSize=20;" vertex="1" parent="1">
                    <mxGeometry x="-49" y="2360" width="120" height="60" as="geometry"/>
                </mxCell>
                <mxCell id="190" value="&lt;meta charset=&quot;utf-8&quot;&gt;&lt;div style=&quot;color: rgb(173, 186, 199); background-color: rgb(34, 39, 46); font-family: &amp;quot;JetBrains Mono&amp;quot;, Consolas, &amp;quot;Courier New&amp;quot;, monospace, Menlo, Monaco, &amp;quot;Courier New&amp;quot;, monospace; font-weight: normal; font-size: 12px; line-height: 17px;&quot;&gt;&lt;div&gt;&lt;span style=&quot;color: #adbac7;&quot;&gt; &lt;/span&gt;&lt;span style=&quot;color: #768390;&quot;&gt;#добавляем оставшейся елементы из левой части&lt;/span&gt;&lt;/div&gt;&lt;/div&gt;" style="rounded=1;whiteSpace=wrap;html=1;fontSize=20;" vertex="1" parent="1">
                    <mxGeometry x="-584" y="2463" width="410" height="60" as="geometry"/>
                </mxCell>
                <mxCell id="191" value="&lt;meta charset=&quot;utf-8&quot;&gt;&lt;div style=&quot;color: rgb(173, 186, 199); background-color: rgb(34, 39, 46); font-family: &amp;quot;JetBrains Mono&amp;quot;, Consolas, &amp;quot;Courier New&amp;quot;, monospace, Menlo, Monaco, &amp;quot;Courier New&amp;quot;, monospace; font-weight: normal; font-size: 12px; line-height: 17px;&quot;&gt;&lt;div&gt;&lt;span style=&quot;color: #f47067;&quot;&gt;while&lt;/span&gt;&lt;span style=&quot;color: #adbac7;&quot;&gt; &lt;/span&gt;&lt;span style=&quot;color: #adbac7;&quot;&gt;left_index&lt;/span&gt;&lt;span style=&quot;color: #adbac7;&quot;&gt; &lt;/span&gt;&lt;span style=&quot;color: #f47067;&quot;&gt;&amp;lt;&lt;/span&gt;&lt;span style=&quot;color: #adbac7;&quot;&gt; &lt;/span&gt;&lt;span style=&quot;color: #dcbdfb;&quot;&gt;len&lt;/span&gt;&lt;span style=&quot;color: #adbac7;&quot;&gt;(&lt;/span&gt;&lt;span style=&quot;color: #f69d50;&quot;&gt;left_part&lt;/span&gt;&lt;span style=&quot;color: #adbac7;&quot;&gt;):&lt;/span&gt;&lt;/div&gt;&lt;div&gt;&lt;span style=&quot;color: #adbac7;&quot;&gt;        &lt;/span&gt;&lt;span style=&quot;color: #adbac7;&quot;&gt;merged&lt;/span&gt;&lt;span style=&quot;color: #adbac7;&quot;&gt;.&lt;/span&gt;&lt;span style=&quot;color: #dcbdfb;&quot;&gt;append&lt;/span&gt;&lt;span style=&quot;color: #adbac7;&quot;&gt;(&lt;/span&gt;&lt;span style=&quot;color: #f69d50;&quot;&gt;left_part&lt;/span&gt;&lt;span style=&quot;color: #adbac7;&quot;&gt;[&lt;/span&gt;&lt;span style=&quot;color: #adbac7;&quot;&gt;left_index&lt;/span&gt;&lt;span style=&quot;color: #adbac7;&quot;&gt;])&lt;/span&gt;&lt;/div&gt;&lt;div&gt;&lt;span style=&quot;color: #adbac7;&quot;&gt;        &lt;/span&gt;&lt;span style=&quot;color: #adbac7;&quot;&gt;left_index&lt;/span&gt;&lt;span style=&quot;color: #adbac7;&quot;&gt; &lt;/span&gt;&lt;span style=&quot;color: #f47067;&quot;&gt;+=&lt;/span&gt;&lt;span style=&quot;color: #adbac7;&quot;&gt; &lt;/span&gt;&lt;span style=&quot;color: #6cb6ff;&quot;&gt;1&lt;/span&gt;&lt;/div&gt;&lt;/div&gt;" style="rounded=1;whiteSpace=wrap;html=1;fontSize=20;" vertex="1" parent="1">
                    <mxGeometry x="-634" y="2543" width="490" height="60" as="geometry"/>
                </mxCell>
                <mxCell id="195" style="edgeStyle=none;html=1;exitX=1;exitY=0.5;exitDx=0;exitDy=0;entryX=0;entryY=0.5;entryDx=0;entryDy=0;fontSize=20;" edge="1" parent="1" source="193" target="194">
                    <mxGeometry relative="1" as="geometry"/>
                </mxCell>
                <mxCell id="193" value="" style="rounded=1;whiteSpace=wrap;html=1;strokeWidth=2;fillWeight=4;hachureGap=8;hachureAngle=45;fillColor=#008a00;sketch=1;fontSize=20;fontColor=#ffffff;strokeColor=#005700;" vertex="1" parent="1">
                    <mxGeometry x="-124" y="2543" width="110" height="60" as="geometry"/>
                </mxCell>
                <mxCell id="194" value="[ 3 , 7]" style="rounded=1;whiteSpace=wrap;html=1;fontSize=20;" vertex="1" parent="1">
                    <mxGeometry x="46" y="2543" width="120" height="60" as="geometry"/>
                </mxCell>
                <mxCell id="196" value="merged" style="rounded=1;whiteSpace=wrap;html=1;fontSize=20;" vertex="1" parent="1">
                    <mxGeometry x="41" y="2473" width="130" height="60" as="geometry"/>
                </mxCell>
                <mxCell id="197" value="left index" style="rounded=1;whiteSpace=wrap;html=1;fontSize=20;" vertex="1" parent="1">
                    <mxGeometry x="186" y="2473" width="120" height="60" as="geometry"/>
                </mxCell>
                <mxCell id="198" value="1" style="whiteSpace=wrap;html=1;fontSize=20;rounded=1;" vertex="1" parent="1">
                    <mxGeometry x="186" y="2543" width="120" height="60" as="geometry"/>
                </mxCell>
                <mxCell id="199" style="edgeStyle=none;html=1;exitX=0;exitY=0.75;exitDx=0;exitDy=0;fontSize=20;" edge="1" parent="1">
                    <mxGeometry relative="1" as="geometry">
                        <mxPoint x="-654" y="2901" as="targetPoint"/>
                        <mxPoint x="-644" y="2566" as="sourcePoint"/>
                        <Array as="points">
                            <mxPoint x="-734" y="2741"/>
                        </Array>
                    </mxGeometry>
                </mxCell>
                <mxCell id="200" value="" style="shape=image;html=1;verticalLabelPosition=bottom;verticalAlign=top;imageAspect=1;aspect=fixed;image=img/clipart/Gear_128x128.png;fontSize=20;" vertex="1" parent="1">
                    <mxGeometry x="-704" y="2703" width="52" height="61" as="geometry"/>
                </mxCell>
                <mxCell id="201" value="&lt;meta charset=&quot;utf-8&quot;&gt;&lt;div style=&quot;color: rgb(173, 186, 199); background-color: rgb(34, 39, 46); font-family: &amp;quot;JetBrains Mono&amp;quot;, Consolas, &amp;quot;Courier New&amp;quot;, monospace, Menlo, Monaco, &amp;quot;Courier New&amp;quot;, monospace; font-weight: normal; font-size: 12px; line-height: 17px;&quot;&gt;&lt;div&gt;&lt;span style=&quot;color: #f47067;&quot;&gt;while&lt;/span&gt;&lt;span style=&quot;color: #adbac7;&quot;&gt; &lt;/span&gt;&lt;span style=&quot;color: #adbac7;&quot;&gt;left_index&lt;/span&gt;&lt;span style=&quot;color: #adbac7;&quot;&gt; &lt;/span&gt;&lt;span style=&quot;color: #f47067;&quot;&gt;&amp;lt;&lt;/span&gt;&lt;span style=&quot;color: #adbac7;&quot;&gt; &lt;/span&gt;&lt;span style=&quot;color: #dcbdfb;&quot;&gt;len&lt;/span&gt;&lt;span style=&quot;color: #adbac7;&quot;&gt;(&lt;/span&gt;&lt;span style=&quot;color: #f69d50;&quot;&gt;left_part&lt;/span&gt;&lt;span style=&quot;color: #adbac7;&quot;&gt;):&lt;/span&gt;&lt;/div&gt;&lt;div&gt;&lt;span style=&quot;color: #adbac7;&quot;&gt;        &lt;/span&gt;&lt;span style=&quot;color: #adbac7;&quot;&gt;merged&lt;/span&gt;&lt;span style=&quot;color: #adbac7;&quot;&gt;.&lt;/span&gt;&lt;span style=&quot;color: #dcbdfb;&quot;&gt;append&lt;/span&gt;&lt;span style=&quot;color: #adbac7;&quot;&gt;(&lt;/span&gt;&lt;span style=&quot;color: #f69d50;&quot;&gt;left_part&lt;/span&gt;&lt;span style=&quot;color: #adbac7;&quot;&gt;[&lt;/span&gt;&lt;span style=&quot;color: #adbac7;&quot;&gt;left_index&lt;/span&gt;&lt;span style=&quot;color: #adbac7;&quot;&gt;])&lt;/span&gt;&lt;/div&gt;&lt;div&gt;&lt;span style=&quot;color: #adbac7;&quot;&gt;        &lt;/span&gt;&lt;span style=&quot;color: #adbac7;&quot;&gt;left_index&lt;/span&gt;&lt;span style=&quot;color: #adbac7;&quot;&gt; &lt;/span&gt;&lt;span style=&quot;color: #f47067;&quot;&gt;+=&lt;/span&gt;&lt;span style=&quot;color: #adbac7;&quot;&gt; &lt;/span&gt;&lt;span style=&quot;color: #6cb6ff;&quot;&gt;1&lt;/span&gt;&lt;/div&gt;&lt;/div&gt;" style="rounded=1;whiteSpace=wrap;html=1;fontSize=20;" vertex="1" parent="1">
                    <mxGeometry x="-652" y="2863" width="490" height="60" as="geometry"/>
                </mxCell>
                <mxCell id="202" value="" style="ellipse;whiteSpace=wrap;html=1;strokeWidth=2;fillWeight=2;hachureGap=8;fillColor=#990000;fillStyle=dots;sketch=1;fontSize=20;" vertex="1" parent="1">
                    <mxGeometry x="-148" y="2863" width="120" height="60" as="geometry"/>
                </mxCell>
                <mxCell id="203" value="&lt;meta charset=&quot;utf-8&quot;&gt;&lt;div style=&quot;color: rgb(173, 186, 199); background-color: rgb(34, 39, 46); font-family: &amp;quot;JetBrains Mono&amp;quot;, Consolas, &amp;quot;Courier New&amp;quot;, monospace, Menlo, Monaco, &amp;quot;Courier New&amp;quot;, monospace; font-weight: normal; font-size: 12px; line-height: 17px;&quot;&gt;&lt;div&gt;&lt;span style=&quot;color: #768390;&quot;&gt;#добавляем оставшейся елементы из правой части&lt;/span&gt;&lt;/div&gt;&lt;/div&gt;" style="rounded=1;whiteSpace=wrap;html=1;fontSize=20;" vertex="1" parent="1">
                    <mxGeometry x="-579" y="2960" width="400" height="60" as="geometry"/>
                </mxCell>
                <mxCell id="204" value="&lt;meta charset=&quot;utf-8&quot;&gt;&lt;div style=&quot;color: rgb(173, 186, 199); background-color: rgb(34, 39, 46); font-family: &amp;quot;JetBrains Mono&amp;quot;, Consolas, &amp;quot;Courier New&amp;quot;, monospace, Menlo, Monaco, &amp;quot;Courier New&amp;quot;, monospace; font-weight: normal; font-size: 12px; line-height: 17px;&quot;&gt;&lt;div&gt;&lt;span style=&quot;color: #f47067;&quot;&gt;while&lt;/span&gt;&lt;span style=&quot;color: #adbac7;&quot;&gt; &lt;/span&gt;&lt;span style=&quot;color: #adbac7;&quot;&gt;right_index&lt;/span&gt;&lt;span style=&quot;color: #adbac7;&quot;&gt; &lt;/span&gt;&lt;span style=&quot;color: #f47067;&quot;&gt;&amp;lt;&lt;/span&gt;&lt;span style=&quot;color: #adbac7;&quot;&gt; &lt;/span&gt;&lt;span style=&quot;color: #dcbdfb;&quot;&gt;len&lt;/span&gt;&lt;span style=&quot;color: #adbac7;&quot;&gt;(&lt;/span&gt;&lt;span style=&quot;color: #f69d50;&quot;&gt;right_part&lt;/span&gt;&lt;span style=&quot;color: #adbac7;&quot;&gt;):&lt;/span&gt;&lt;/div&gt;&lt;div&gt;&lt;span style=&quot;color: #adbac7;&quot;&gt;        &lt;/span&gt;&lt;span style=&quot;color: #adbac7;&quot;&gt;merged&lt;/span&gt;&lt;span style=&quot;color: #adbac7;&quot;&gt;.&lt;/span&gt;&lt;span style=&quot;color: #dcbdfb;&quot;&gt;append&lt;/span&gt;&lt;span style=&quot;color: #adbac7;&quot;&gt;(&lt;/span&gt;&lt;span style=&quot;color: #f69d50;&quot;&gt;right_part&lt;/span&gt;&lt;span style=&quot;color: #adbac7;&quot;&gt;[&lt;/span&gt;&lt;span style=&quot;color: #adbac7;&quot;&gt;right_index&lt;/span&gt;&lt;span style=&quot;color: #adbac7;&quot;&gt;])&lt;/span&gt;&lt;/div&gt;&lt;div&gt;&lt;span style=&quot;color: #adbac7;&quot;&gt;        &lt;/span&gt;&lt;span style=&quot;color: #adbac7;&quot;&gt;right_index&lt;/span&gt;&lt;span style=&quot;color: #adbac7;&quot;&gt; &lt;/span&gt;&lt;span style=&quot;color: #f47067;&quot;&gt;+=&lt;/span&gt;&lt;span style=&quot;color: #adbac7;&quot;&gt; &lt;/span&gt;&lt;span style=&quot;color: #6cb6ff;&quot;&gt;1&lt;/span&gt;&lt;/div&gt;&lt;/div&gt;" style="rounded=1;whiteSpace=wrap;html=1;fontSize=20;" vertex="1" parent="1">
                    <mxGeometry x="-634" y="3050" width="490" height="60" as="geometry"/>
                </mxCell>
                <mxCell id="205" value="" style="ellipse;whiteSpace=wrap;html=1;strokeWidth=2;fillWeight=2;hachureGap=8;fillColor=#990000;fillStyle=dots;sketch=1;fontSize=20;" vertex="1" parent="1">
                    <mxGeometry x="-128" y="3050" width="120" height="60" as="geometry"/>
                </mxCell>
                <mxCell id="360" value="sorted list [ 3, 7]" style="edgeStyle=none;html=1;exitX=0;exitY=0.5;exitDx=0;exitDy=0;entryX=0.5;entryY=0;entryDx=0;entryDy=0;fontSize=20;fillColor=#1ba1e2;strokeColor=#006EAF;" edge="1" parent="1" source="206" target="71">
                    <mxGeometry relative="1" as="geometry">
                        <Array as="points">
                            <mxPoint x="-990" y="3200"/>
                            <mxPoint x="-1160" y="1020"/>
                        </Array>
                    </mxGeometry>
                </mxCell>
                <mxCell id="206" value="возвращаем значение&amp;nbsp; [ 3 , 7]" style="shape=step;perimeter=stepPerimeter;whiteSpace=wrap;html=1;fixedSize=1;fontSize=20;" vertex="1" parent="1">
                    <mxGeometry x="-544" y="3210" width="320" height="80" as="geometry"/>
                </mxCell>
                <mxCell id="214" value="&lt;meta charset=&quot;utf-8&quot;&gt;&lt;div style=&quot;color: rgb(173, 186, 199); background-color: rgb(34, 39, 46); font-family: &amp;quot;JetBrains Mono&amp;quot;, Consolas, &amp;quot;Courier New&amp;quot;, monospace, Menlo, Monaco, &amp;quot;Courier New&amp;quot;, monospace; font-weight: normal; font-size: 12px; line-height: 17px;&quot;&gt;&lt;div&gt;&lt;span style=&quot;color: #f47067;&quot;&gt;def&lt;/span&gt;&lt;span style=&quot;color: #adbac7;&quot;&gt; &lt;/span&gt;&lt;span style=&quot;color: #dcbdfb;&quot;&gt;merge&lt;/span&gt;&lt;span style=&quot;color: #adbac7;&quot;&gt;(&lt;/span&gt;&lt;span style=&quot;color: #f69d50;&quot;&gt;left_part&lt;/span&gt;&lt;span style=&quot;color: #adbac7;&quot;&gt;:&lt;/span&gt;&lt;span style=&quot;color: #f69d50;&quot;&gt;list&lt;/span&gt;&lt;span style=&quot;color: #adbac7;&quot;&gt;, &lt;/span&gt;&lt;span style=&quot;color: #f69d50;&quot;&gt;right_part&lt;/span&gt;&lt;span style=&quot;color: #adbac7;&quot;&gt;:&lt;/span&gt;&lt;span style=&quot;color: #f69d50;&quot;&gt;list&lt;/span&gt;&lt;span style=&quot;color: #adbac7;&quot;&gt;)-&amp;gt;&lt;/span&gt;&lt;span style=&quot;color: #f69d50;&quot;&gt;list&lt;/span&gt;&lt;span style=&quot;color: #adbac7;&quot;&gt;:&lt;/span&gt;&lt;/div&gt;&lt;/div&gt;" style="rounded=1;whiteSpace=wrap;html=1;fontSize=20;" vertex="1" parent="1">
                    <mxGeometry x="-2190" y="1074.5" width="430" height="60" as="geometry"/>
                </mxCell>
                <mxCell id="216" value="[5]" style="whiteSpace=wrap;html=1;rounded=1;" vertex="1" parent="1">
                    <mxGeometry x="-2102" y="992" width="120" height="60" as="geometry"/>
                </mxCell>
                <mxCell id="217" value="[ 3 , 7]" style="rounded=1;whiteSpace=wrap;html=1;fontSize=20;" vertex="1" parent="1">
                    <mxGeometry x="-1952" y="992" width="120" height="60" as="geometry"/>
                </mxCell>
                <mxCell id="218" value="" style="edgeStyle=none;html=1;fontSize=20;" edge="1" parent="1" source="219" target="220">
                    <mxGeometry relative="1" as="geometry"/>
                </mxCell>
                <mxCell id="219" value="merged" style="rounded=1;whiteSpace=wrap;html=1;fontSize=20;" vertex="1" parent="1">
                    <mxGeometry x="-2160" y="1150.5" width="130" height="60" as="geometry"/>
                </mxCell>
                <mxCell id="220" value="[&amp;nbsp; ]" style="whiteSpace=wrap;html=1;fontSize=20;rounded=1;" vertex="1" parent="1">
                    <mxGeometry x="-1945" y="1150.5" width="120" height="60" as="geometry"/>
                </mxCell>
                <mxCell id="221" value="" style="edgeStyle=none;html=1;fontSize=20;" edge="1" parent="1" source="222" target="225">
                    <mxGeometry relative="1" as="geometry"/>
                </mxCell>
                <mxCell id="222" value="left index" style="rounded=1;whiteSpace=wrap;html=1;fontSize=20;" vertex="1" parent="1">
                    <mxGeometry x="-2155" y="1230.5" width="120" height="60" as="geometry"/>
                </mxCell>
                <mxCell id="223" value="" style="edgeStyle=none;html=1;fontSize=20;" edge="1" parent="1" source="224" target="226">
                    <mxGeometry relative="1" as="geometry"/>
                </mxCell>
                <mxCell id="224" value="right rindex" style="rounded=1;whiteSpace=wrap;html=1;fontSize=20;" vertex="1" parent="1">
                    <mxGeometry x="-2150" y="1320.5" width="120" height="60" as="geometry"/>
                </mxCell>
                <mxCell id="225" value="0" style="whiteSpace=wrap;html=1;fontSize=20;rounded=1;" vertex="1" parent="1">
                    <mxGeometry x="-1945" y="1230.5" width="120" height="60" as="geometry"/>
                </mxCell>
                <mxCell id="226" value="0" style="whiteSpace=wrap;html=1;fontSize=20;rounded=1;" vertex="1" parent="1">
                    <mxGeometry x="-1945" y="1320.5" width="120" height="60" as="geometry"/>
                </mxCell>
                <mxCell id="227" style="edgeStyle=none;html=1;exitX=0;exitY=0.75;exitDx=0;exitDy=0;fontSize=20;" edge="1" parent="1" source="228">
                    <mxGeometry relative="1" as="geometry">
                        <mxPoint x="-2350" y="1980" as="targetPoint"/>
                        <Array as="points">
                            <mxPoint x="-2430" y="1820"/>
                        </Array>
                    </mxGeometry>
                </mxCell>
                <mxCell id="228" value="&lt;meta charset=&quot;utf-8&quot;&gt;&lt;div style=&quot;color: rgb(173, 186, 199); background-color: rgb(34, 39, 46); font-family: &amp;quot;JetBrains Mono&amp;quot;, Consolas, &amp;quot;Courier New&amp;quot;, monospace, Menlo, Monaco, &amp;quot;Courier New&amp;quot;, monospace; font-weight: normal; font-size: 12px; line-height: 17px;&quot;&gt;&lt;div&gt;&lt;span style=&quot;color: #f47067;&quot;&gt;while&lt;/span&gt;&lt;span style=&quot;color: #adbac7;&quot;&gt; &lt;/span&gt;&lt;span style=&quot;color: #adbac7;&quot;&gt;left_index&lt;/span&gt;&lt;span style=&quot;color: #adbac7;&quot;&gt; &lt;/span&gt;&lt;span style=&quot;color: #f47067;&quot;&gt;&amp;lt;&lt;/span&gt;&lt;span style=&quot;color: #adbac7;&quot;&gt; &lt;/span&gt;&lt;span style=&quot;color: #dcbdfb;&quot;&gt;len&lt;/span&gt;&lt;span style=&quot;color: #adbac7;&quot;&gt;(&lt;/span&gt;&lt;span style=&quot;color: #f69d50;&quot;&gt;left_part&lt;/span&gt;&lt;span style=&quot;color: #adbac7;&quot;&gt;) &lt;/span&gt;&lt;span style=&quot;color: #f47067;&quot;&gt;and&lt;/span&gt;&lt;span style=&quot;color: #adbac7;&quot;&gt; &lt;/span&gt;&lt;span style=&quot;color: #adbac7;&quot;&gt;right_index&lt;/span&gt;&lt;span style=&quot;color: #adbac7;&quot;&gt; &lt;/span&gt;&lt;span style=&quot;color: #f47067;&quot;&gt;&amp;lt;&lt;/span&gt;&lt;span style=&quot;color: #adbac7;&quot;&gt; &lt;/span&gt;&lt;span style=&quot;color: #dcbdfb;&quot;&gt;len&lt;/span&gt;&lt;span style=&quot;color: #adbac7;&quot;&gt;(&lt;/span&gt;&lt;span style=&quot;color: #f69d50;&quot;&gt;right_part&lt;/span&gt;&lt;span style=&quot;color: #adbac7;&quot;&gt;):&lt;/span&gt;&lt;/div&gt;&lt;/div&gt;" style="rounded=1;whiteSpace=wrap;html=1;fontSize=20;" vertex="1" parent="1">
                    <mxGeometry x="-2348" y="1399.5" width="546" height="60" as="geometry"/>
                </mxCell>
                <mxCell id="229" value="&lt;meta charset=&quot;utf-8&quot;&gt;&lt;div style=&quot;color: rgb(173, 186, 199); background-color: rgb(34, 39, 46); font-family: &amp;quot;JetBrains Mono&amp;quot;, Consolas, &amp;quot;Courier New&amp;quot;, monospace, Menlo, Monaco, &amp;quot;Courier New&amp;quot;, monospace; font-weight: normal; font-size: 12px; line-height: 17px;&quot;&gt;&lt;div&gt;&lt;span style=&quot;color: #f47067;&quot;&gt;if&lt;/span&gt;&lt;span style=&quot;color: #adbac7;&quot;&gt; &lt;/span&gt;&lt;span style=&quot;color: #f69d50;&quot;&gt;left_part&lt;/span&gt;&lt;span style=&quot;color: #adbac7;&quot;&gt;[&lt;/span&gt;&lt;span style=&quot;color: #adbac7;&quot;&gt;left_index&lt;/span&gt;&lt;span style=&quot;color: #adbac7;&quot;&gt;] &lt;/span&gt;&lt;span style=&quot;color: #f47067;&quot;&gt;&amp;lt;=&lt;/span&gt;&lt;span style=&quot;color: #adbac7;&quot;&gt; &lt;/span&gt;&lt;span style=&quot;color: #f69d50;&quot;&gt;right_part&lt;/span&gt;&lt;span style=&quot;color: #adbac7;&quot;&gt;[&lt;/span&gt;&lt;span style=&quot;color: #adbac7;&quot;&gt;right_index&lt;/span&gt;&lt;span style=&quot;color: #adbac7;&quot;&gt;]:&lt;/span&gt;&lt;/div&gt;&lt;div&gt;&lt;span style=&quot;color: #adbac7;&quot;&gt;            &lt;/span&gt;&lt;span style=&quot;color: #adbac7;&quot;&gt;merged&lt;/span&gt;&lt;span style=&quot;color: #adbac7;&quot;&gt;.&lt;/span&gt;&lt;span style=&quot;color: #dcbdfb;&quot;&gt;append&lt;/span&gt;&lt;span style=&quot;color: #adbac7;&quot;&gt;(&lt;/span&gt;&lt;span style=&quot;color: #f69d50;&quot;&gt;left_part&lt;/span&gt;&lt;span style=&quot;color: #adbac7;&quot;&gt;[&lt;/span&gt;&lt;span style=&quot;color: #adbac7;&quot;&gt;left_index&lt;/span&gt;&lt;span style=&quot;color: #adbac7;&quot;&gt;])&lt;/span&gt;&lt;/div&gt;&lt;div&gt;&lt;span style=&quot;color: #adbac7;&quot;&gt;            &lt;/span&gt;&lt;span style=&quot;color: #adbac7;&quot;&gt;left_index&lt;/span&gt;&lt;span style=&quot;color: #adbac7;&quot;&gt; &lt;/span&gt;&lt;span style=&quot;color: #f47067;&quot;&gt;+=&lt;/span&gt;&lt;span style=&quot;color: #adbac7;&quot;&gt; &lt;/span&gt;&lt;span style=&quot;color: #6cb6ff;&quot;&gt;1&lt;/span&gt;&lt;/div&gt;&lt;/div&gt;" style="rounded=1;whiteSpace=wrap;html=1;fontSize=20;" vertex="1" parent="1">
                    <mxGeometry x="-2262" y="1479.5" width="450" height="60" as="geometry"/>
                </mxCell>
                <mxCell id="230" value="" style="ellipse;whiteSpace=wrap;html=1;strokeWidth=2;fillWeight=2;hachureGap=8;fillColor=#990000;fillStyle=dots;sketch=1;fontSize=20;" vertex="1" parent="1">
                    <mxGeometry x="-1788" y="1479.5" width="120" height="60" as="geometry"/>
                </mxCell>
                <mxCell id="231" value="&lt;meta charset=&quot;utf-8&quot;&gt;&lt;div style=&quot;color: rgb(173, 186, 199); background-color: rgb(34, 39, 46); font-family: &amp;quot;JetBrains Mono&amp;quot;, Consolas, &amp;quot;Courier New&amp;quot;, monospace, Menlo, Monaco, &amp;quot;Courier New&amp;quot;, monospace; font-weight: normal; font-size: 12px; line-height: 17px;&quot;&gt;&lt;div&gt;&lt;span style=&quot;color: #adbac7;&quot;&gt; &lt;/span&gt;&lt;span style=&quot;color: #f47067;&quot;&gt;else&lt;/span&gt;&lt;span style=&quot;color: #adbac7;&quot;&gt;:&lt;/span&gt;&lt;/div&gt;&lt;div&gt;&lt;span style=&quot;color: #adbac7;&quot;&gt;            &lt;/span&gt;&lt;span style=&quot;color: #adbac7;&quot;&gt;merged&lt;/span&gt;&lt;span style=&quot;color: #adbac7;&quot;&gt;.&lt;/span&gt;&lt;span style=&quot;color: #dcbdfb;&quot;&gt;append&lt;/span&gt;&lt;span style=&quot;color: #adbac7;&quot;&gt;(&lt;/span&gt;&lt;span style=&quot;color: #f69d50;&quot;&gt;right_part&lt;/span&gt;&lt;span style=&quot;color: #adbac7;&quot;&gt;[&lt;/span&gt;&lt;span style=&quot;color: #adbac7;&quot;&gt;right_index&lt;/span&gt;&lt;span style=&quot;color: #adbac7;&quot;&gt;])&lt;/span&gt;&lt;/div&gt;&lt;div&gt;&lt;span style=&quot;color: #adbac7;&quot;&gt;            &lt;/span&gt;&lt;span style=&quot;color: #adbac7;&quot;&gt;right_index&lt;/span&gt;&lt;span style=&quot;color: #adbac7;&quot;&gt; &lt;/span&gt;&lt;span style=&quot;color: #f47067;&quot;&gt;+=&lt;/span&gt;&lt;span style=&quot;color: #adbac7;&quot;&gt; &lt;/span&gt;&lt;span style=&quot;color: #6cb6ff;&quot;&gt;1&lt;/span&gt;&lt;/div&gt;&lt;/div&gt;" style="rounded=1;whiteSpace=wrap;html=1;fontSize=20;" vertex="1" parent="1">
                    <mxGeometry x="-2218" y="1569.5" width="385" height="70" as="geometry"/>
                </mxCell>
                <mxCell id="232" style="edgeStyle=none;html=1;entryX=0;entryY=0.5;entryDx=0;entryDy=0;fontSize=20;" edge="1" parent="1" source="233" target="234">
                    <mxGeometry relative="1" as="geometry"/>
                </mxCell>
                <mxCell id="233" value="" style="rounded=1;whiteSpace=wrap;html=1;strokeWidth=2;fillWeight=4;hachureGap=8;hachureAngle=45;fillColor=#008a00;sketch=1;fontSize=20;fontColor=#ffffff;strokeColor=#005700;" vertex="1" parent="1">
                    <mxGeometry x="-1788" y="1574.5" width="120" height="60" as="geometry"/>
                </mxCell>
                <mxCell id="234" value="[ 3 ]" style="rounded=1;whiteSpace=wrap;html=1;fontSize=20;" vertex="1" parent="1">
                    <mxGeometry x="-1558" y="1549.5" width="120" height="60" as="geometry"/>
                </mxCell>
                <mxCell id="235" value="merged" style="rounded=1;whiteSpace=wrap;html=1;fontSize=20;" vertex="1" parent="1">
                    <mxGeometry x="-1563" y="1479.5" width="130" height="60" as="geometry"/>
                </mxCell>
                <mxCell id="236" value="right rindex" style="rounded=1;whiteSpace=wrap;html=1;fontSize=20;" vertex="1" parent="1">
                    <mxGeometry x="-1418" y="1479.5" width="120" height="60" as="geometry"/>
                </mxCell>
                <mxCell id="237" value="1" style="whiteSpace=wrap;html=1;fontSize=20;rounded=1;" vertex="1" parent="1">
                    <mxGeometry x="-1418" y="1549.5" width="120" height="60" as="geometry"/>
                </mxCell>
                <mxCell id="238" value="" style="shape=image;html=1;verticalLabelPosition=bottom;verticalAlign=top;imageAspect=1;aspect=fixed;image=img/clipart/Gear_128x128.png;fontSize=20;" vertex="1" parent="1">
                    <mxGeometry x="-2420" y="1589.5" width="52" height="61" as="geometry"/>
                </mxCell>
                <mxCell id="239" value="&lt;meta charset=&quot;utf-8&quot;&gt;&lt;div style=&quot;color: rgb(173, 186, 199); background-color: rgb(34, 39, 46); font-family: &amp;quot;JetBrains Mono&amp;quot;, Consolas, &amp;quot;Courier New&amp;quot;, monospace, Menlo, Monaco, &amp;quot;Courier New&amp;quot;, monospace; font-weight: normal; font-size: 12px; line-height: 17px;&quot;&gt;&lt;div&gt;&lt;span style=&quot;color: #f47067;&quot;&gt;while&lt;/span&gt;&lt;span style=&quot;color: #adbac7;&quot;&gt; &lt;/span&gt;&lt;span style=&quot;color: #adbac7;&quot;&gt;left_index&lt;/span&gt;&lt;span style=&quot;color: #adbac7;&quot;&gt; &lt;/span&gt;&lt;span style=&quot;color: #f47067;&quot;&gt;&amp;lt;&lt;/span&gt;&lt;span style=&quot;color: #adbac7;&quot;&gt; &lt;/span&gt;&lt;span style=&quot;color: #dcbdfb;&quot;&gt;len&lt;/span&gt;&lt;span style=&quot;color: #adbac7;&quot;&gt;(&lt;/span&gt;&lt;span style=&quot;color: #f69d50;&quot;&gt;left_part&lt;/span&gt;&lt;span style=&quot;color: #adbac7;&quot;&gt;) &lt;/span&gt;&lt;span style=&quot;color: #f47067;&quot;&gt;and&lt;/span&gt;&lt;span style=&quot;color: #adbac7;&quot;&gt; &lt;/span&gt;&lt;span style=&quot;color: #adbac7;&quot;&gt;right_index&lt;/span&gt;&lt;span style=&quot;color: #adbac7;&quot;&gt; &lt;/span&gt;&lt;span style=&quot;color: #f47067;&quot;&gt;&amp;lt;&lt;/span&gt;&lt;span style=&quot;color: #adbac7;&quot;&gt; &lt;/span&gt;&lt;span style=&quot;color: #dcbdfb;&quot;&gt;len&lt;/span&gt;&lt;span style=&quot;color: #adbac7;&quot;&gt;(&lt;/span&gt;&lt;span style=&quot;color: #f69d50;&quot;&gt;right_part&lt;/span&gt;&lt;span style=&quot;color: #adbac7;&quot;&gt;):&lt;/span&gt;&lt;/div&gt;&lt;/div&gt;" style="rounded=1;whiteSpace=wrap;html=1;fontSize=20;" vertex="1" parent="1">
                    <mxGeometry x="-2348" y="1749.5" width="546" height="60" as="geometry"/>
                </mxCell>
                <mxCell id="240" value="" style="rounded=1;whiteSpace=wrap;html=1;strokeWidth=2;fillWeight=4;hachureGap=8;hachureAngle=45;fillColor=#008a00;sketch=1;fontSize=20;fontColor=#ffffff;strokeColor=#005700;" vertex="1" parent="1">
                    <mxGeometry x="-1788" y="1399.5" width="120" height="60" as="geometry"/>
                </mxCell>
                <mxCell id="242" value="&lt;meta charset=&quot;utf-8&quot;&gt;&lt;div style=&quot;color: rgb(173, 186, 199); background-color: rgb(34, 39, 46); font-family: &amp;quot;JetBrains Mono&amp;quot;, Consolas, &amp;quot;Courier New&amp;quot;, monospace, Menlo, Monaco, &amp;quot;Courier New&amp;quot;, monospace; font-weight: normal; font-size: 12px; line-height: 17px;&quot;&gt;&lt;div&gt;&lt;span style=&quot;color: #adbac7;&quot;&gt; &lt;/span&gt;&lt;span style=&quot;color: #768390;&quot;&gt;#добавляем оставшейся елементы из левой части&lt;/span&gt;&lt;/div&gt;&lt;/div&gt;" style="rounded=1;whiteSpace=wrap;html=1;fontSize=20;" vertex="1" parent="1">
                    <mxGeometry x="-2258" y="2194.5" width="410" height="60" as="geometry"/>
                </mxCell>
                <mxCell id="243" value="&lt;meta charset=&quot;utf-8&quot;&gt;&lt;div style=&quot;color: rgb(173, 186, 199); background-color: rgb(34, 39, 46); font-family: &amp;quot;JetBrains Mono&amp;quot;, Consolas, &amp;quot;Courier New&amp;quot;, monospace, Menlo, Monaco, &amp;quot;Courier New&amp;quot;, monospace; font-weight: normal; font-size: 12px; line-height: 17px;&quot;&gt;&lt;div&gt;&lt;span style=&quot;color: #f47067;&quot;&gt;while&lt;/span&gt;&lt;span style=&quot;color: #adbac7;&quot;&gt; &lt;/span&gt;&lt;span style=&quot;color: #adbac7;&quot;&gt;left_index&lt;/span&gt;&lt;span style=&quot;color: #adbac7;&quot;&gt; &lt;/span&gt;&lt;span style=&quot;color: #f47067;&quot;&gt;&amp;lt;&lt;/span&gt;&lt;span style=&quot;color: #adbac7;&quot;&gt; &lt;/span&gt;&lt;span style=&quot;color: #dcbdfb;&quot;&gt;len&lt;/span&gt;&lt;span style=&quot;color: #adbac7;&quot;&gt;(&lt;/span&gt;&lt;span style=&quot;color: #f69d50;&quot;&gt;left_part&lt;/span&gt;&lt;span style=&quot;color: #adbac7;&quot;&gt;):&lt;/span&gt;&lt;/div&gt;&lt;div&gt;&lt;span style=&quot;color: #adbac7;&quot;&gt;        &lt;/span&gt;&lt;span style=&quot;color: #adbac7;&quot;&gt;merged&lt;/span&gt;&lt;span style=&quot;color: #adbac7;&quot;&gt;.&lt;/span&gt;&lt;span style=&quot;color: #dcbdfb;&quot;&gt;append&lt;/span&gt;&lt;span style=&quot;color: #adbac7;&quot;&gt;(&lt;/span&gt;&lt;span style=&quot;color: #f69d50;&quot;&gt;left_part&lt;/span&gt;&lt;span style=&quot;color: #adbac7;&quot;&gt;[&lt;/span&gt;&lt;span style=&quot;color: #adbac7;&quot;&gt;left_index&lt;/span&gt;&lt;span style=&quot;color: #adbac7;&quot;&gt;])&lt;/span&gt;&lt;/div&gt;&lt;div&gt;&lt;span style=&quot;color: #adbac7;&quot;&gt;        &lt;/span&gt;&lt;span style=&quot;color: #adbac7;&quot;&gt;left_index&lt;/span&gt;&lt;span style=&quot;color: #adbac7;&quot;&gt; &lt;/span&gt;&lt;span style=&quot;color: #f47067;&quot;&gt;+=&lt;/span&gt;&lt;span style=&quot;color: #adbac7;&quot;&gt; &lt;/span&gt;&lt;span style=&quot;color: #6cb6ff;&quot;&gt;1&lt;/span&gt;&lt;/div&gt;&lt;/div&gt;" style="rounded=1;whiteSpace=wrap;html=1;fontSize=20;" vertex="1" parent="1">
                    <mxGeometry x="-2318" y="2289.5" width="490" height="60" as="geometry"/>
                </mxCell>
                <mxCell id="254" value="&lt;meta charset=&quot;utf-8&quot;&gt;&lt;div style=&quot;color: rgb(173, 186, 199); background-color: rgb(34, 39, 46); font-family: &amp;quot;JetBrains Mono&amp;quot;, Consolas, &amp;quot;Courier New&amp;quot;, monospace, Menlo, Monaco, &amp;quot;Courier New&amp;quot;, monospace; font-weight: normal; font-size: 12px; line-height: 17px;&quot;&gt;&lt;div&gt;&lt;span style=&quot;color: #768390;&quot;&gt;#добавляем оставшейся елементы из правой части&lt;/span&gt;&lt;/div&gt;&lt;/div&gt;" style="rounded=1;whiteSpace=wrap;html=1;fontSize=20;" vertex="1" parent="1">
                    <mxGeometry x="-2248" y="2389.5" width="400" height="60" as="geometry"/>
                </mxCell>
                <mxCell id="255" value="&lt;meta charset=&quot;utf-8&quot;&gt;&lt;div style=&quot;color: rgb(173, 186, 199); background-color: rgb(34, 39, 46); font-family: &amp;quot;JetBrains Mono&amp;quot;, Consolas, &amp;quot;Courier New&amp;quot;, monospace, Menlo, Monaco, &amp;quot;Courier New&amp;quot;, monospace; font-weight: normal; font-size: 12px; line-height: 17px;&quot;&gt;&lt;div&gt;&lt;span style=&quot;color: #f47067;&quot;&gt;while&lt;/span&gt;&lt;span style=&quot;color: #adbac7;&quot;&gt; &lt;/span&gt;&lt;span style=&quot;color: #adbac7;&quot;&gt;right_index&lt;/span&gt;&lt;span style=&quot;color: #adbac7;&quot;&gt; &lt;/span&gt;&lt;span style=&quot;color: #f47067;&quot;&gt;&amp;lt;&lt;/span&gt;&lt;span style=&quot;color: #adbac7;&quot;&gt; &lt;/span&gt;&lt;span style=&quot;color: #dcbdfb;&quot;&gt;len&lt;/span&gt;&lt;span style=&quot;color: #adbac7;&quot;&gt;(&lt;/span&gt;&lt;span style=&quot;color: #f69d50;&quot;&gt;right_part&lt;/span&gt;&lt;span style=&quot;color: #adbac7;&quot;&gt;):&lt;/span&gt;&lt;/div&gt;&lt;div&gt;&lt;span style=&quot;color: #adbac7;&quot;&gt;        &lt;/span&gt;&lt;span style=&quot;color: #adbac7;&quot;&gt;merged&lt;/span&gt;&lt;span style=&quot;color: #adbac7;&quot;&gt;.&lt;/span&gt;&lt;span style=&quot;color: #dcbdfb;&quot;&gt;append&lt;/span&gt;&lt;span style=&quot;color: #adbac7;&quot;&gt;(&lt;/span&gt;&lt;span style=&quot;color: #f69d50;&quot;&gt;right_part&lt;/span&gt;&lt;span style=&quot;color: #adbac7;&quot;&gt;[&lt;/span&gt;&lt;span style=&quot;color: #adbac7;&quot;&gt;right_index&lt;/span&gt;&lt;span style=&quot;color: #adbac7;&quot;&gt;])&lt;/span&gt;&lt;/div&gt;&lt;div&gt;&lt;span style=&quot;color: #adbac7;&quot;&gt;        &lt;/span&gt;&lt;span style=&quot;color: #adbac7;&quot;&gt;right_index&lt;/span&gt;&lt;span style=&quot;color: #adbac7;&quot;&gt; &lt;/span&gt;&lt;span style=&quot;color: #f47067;&quot;&gt;+=&lt;/span&gt;&lt;span style=&quot;color: #adbac7;&quot;&gt; &lt;/span&gt;&lt;span style=&quot;color: #6cb6ff;&quot;&gt;1&lt;/span&gt;&lt;/div&gt;&lt;/div&gt;" style="rounded=1;whiteSpace=wrap;html=1;fontSize=20;" vertex="1" parent="1">
                    <mxGeometry x="-2318" y="2469.5" width="490" height="60" as="geometry"/>
                </mxCell>
                <mxCell id="257" value="" style="rounded=1;whiteSpace=wrap;html=1;strokeWidth=2;fillWeight=4;hachureGap=8;hachureAngle=45;fillColor=#008a00;sketch=1;fontSize=20;fontColor=#ffffff;strokeColor=#005700;" vertex="1" parent="1">
                    <mxGeometry x="-1793" y="1749.5" width="120" height="60" as="geometry"/>
                </mxCell>
                <mxCell id="258" value="&lt;meta charset=&quot;utf-8&quot;&gt;&lt;div style=&quot;color: rgb(173, 186, 199); background-color: rgb(34, 39, 46); font-family: &amp;quot;JetBrains Mono&amp;quot;, Consolas, &amp;quot;Courier New&amp;quot;, monospace, Menlo, Monaco, &amp;quot;Courier New&amp;quot;, monospace; font-weight: normal; font-size: 12px; line-height: 17px;&quot;&gt;&lt;div&gt;&lt;span style=&quot;color: #f47067;&quot;&gt;if&lt;/span&gt;&lt;span style=&quot;color: #adbac7;&quot;&gt; &lt;/span&gt;&lt;span style=&quot;color: #f69d50;&quot;&gt;left_part&lt;/span&gt;&lt;span style=&quot;color: #adbac7;&quot;&gt;[&lt;/span&gt;&lt;span style=&quot;color: #adbac7;&quot;&gt;left_index&lt;/span&gt;&lt;span style=&quot;color: #adbac7;&quot;&gt;] &lt;/span&gt;&lt;span style=&quot;color: #f47067;&quot;&gt;&amp;lt;=&lt;/span&gt;&lt;span style=&quot;color: #adbac7;&quot;&gt; &lt;/span&gt;&lt;span style=&quot;color: #f69d50;&quot;&gt;right_part&lt;/span&gt;&lt;span style=&quot;color: #adbac7;&quot;&gt;[&lt;/span&gt;&lt;span style=&quot;color: #adbac7;&quot;&gt;right_index&lt;/span&gt;&lt;span style=&quot;color: #adbac7;&quot;&gt;]:&lt;/span&gt;&lt;/div&gt;&lt;div&gt;&lt;span style=&quot;color: #adbac7;&quot;&gt;            &lt;/span&gt;&lt;span style=&quot;color: #adbac7;&quot;&gt;merged&lt;/span&gt;&lt;span style=&quot;color: #adbac7;&quot;&gt;.&lt;/span&gt;&lt;span style=&quot;color: #dcbdfb;&quot;&gt;append&lt;/span&gt;&lt;span style=&quot;color: #adbac7;&quot;&gt;(&lt;/span&gt;&lt;span style=&quot;color: #f69d50;&quot;&gt;left_part&lt;/span&gt;&lt;span style=&quot;color: #adbac7;&quot;&gt;[&lt;/span&gt;&lt;span style=&quot;color: #adbac7;&quot;&gt;left_index&lt;/span&gt;&lt;span style=&quot;color: #adbac7;&quot;&gt;])&lt;/span&gt;&lt;/div&gt;&lt;div&gt;&lt;span style=&quot;color: #adbac7;&quot;&gt;            &lt;/span&gt;&lt;span style=&quot;color: #adbac7;&quot;&gt;left_index&lt;/span&gt;&lt;span style=&quot;color: #adbac7;&quot;&gt; &lt;/span&gt;&lt;span style=&quot;color: #f47067;&quot;&gt;+=&lt;/span&gt;&lt;span style=&quot;color: #adbac7;&quot;&gt; &lt;/span&gt;&lt;span style=&quot;color: #6cb6ff;&quot;&gt;1&lt;/span&gt;&lt;/div&gt;&lt;/div&gt;" style="rounded=1;whiteSpace=wrap;html=1;fontSize=20;" vertex="1" parent="1">
                    <mxGeometry x="-2262" y="1819.5" width="450" height="60" as="geometry"/>
                </mxCell>
                <mxCell id="259" value="" style="rounded=1;whiteSpace=wrap;html=1;strokeWidth=2;fillWeight=4;hachureGap=8;hachureAngle=45;fillColor=#008a00;sketch=1;fontSize=20;fontColor=#ffffff;strokeColor=#005700;" vertex="1" parent="1">
                    <mxGeometry x="-1793" y="1819.5" width="120" height="60" as="geometry"/>
                </mxCell>
                <mxCell id="260" value="[ 3, 5 ]" style="rounded=1;whiteSpace=wrap;html=1;fontSize=20;" vertex="1" parent="1">
                    <mxGeometry x="-1588" y="1809.5" width="120" height="60" as="geometry"/>
                </mxCell>
                <mxCell id="261" value="merged" style="rounded=1;whiteSpace=wrap;html=1;fontSize=20;" vertex="1" parent="1">
                    <mxGeometry x="-1588" y="1739.5" width="130" height="60" as="geometry"/>
                </mxCell>
                <mxCell id="262" value="left index" style="rounded=1;whiteSpace=wrap;html=1;fontSize=20;" vertex="1" parent="1">
                    <mxGeometry x="-1438" y="1739.5" width="120" height="60" as="geometry"/>
                </mxCell>
                <mxCell id="263" value="1" style="whiteSpace=wrap;html=1;fontSize=20;rounded=1;" vertex="1" parent="1">
                    <mxGeometry x="-1438" y="1809.5" width="120" height="60" as="geometry"/>
                </mxCell>
                <mxCell id="264" style="edgeStyle=none;html=1;exitX=0;exitY=0.75;exitDx=0;exitDy=0;fontSize=20;" edge="1" parent="1">
                    <mxGeometry relative="1" as="geometry">
                        <mxPoint x="-2360" y="2325" as="targetPoint"/>
                        <Array as="points">
                            <mxPoint x="-2440" y="2165"/>
                        </Array>
                        <mxPoint x="-2350" y="1990" as="sourcePoint"/>
                    </mxGeometry>
                </mxCell>
                <mxCell id="265" value="" style="shape=image;html=1;verticalLabelPosition=bottom;verticalAlign=top;imageAspect=1;aspect=fixed;image=img/clipart/Gear_128x128.png;fontSize=20;" vertex="1" parent="1">
                    <mxGeometry x="-2418" y="1929.5" width="52" height="61" as="geometry"/>
                </mxCell>
                <mxCell id="266" value="&lt;meta charset=&quot;utf-8&quot;&gt;&lt;div style=&quot;color: rgb(173, 186, 199); background-color: rgb(34, 39, 46); font-family: &amp;quot;JetBrains Mono&amp;quot;, Consolas, &amp;quot;Courier New&amp;quot;, monospace, Menlo, Monaco, &amp;quot;Courier New&amp;quot;, monospace; font-weight: normal; font-size: 12px; line-height: 17px;&quot;&gt;&lt;div&gt;&lt;span style=&quot;color: #f47067;&quot;&gt;while&lt;/span&gt;&lt;span style=&quot;color: #adbac7;&quot;&gt; &lt;/span&gt;&lt;span style=&quot;color: #adbac7;&quot;&gt;left_index&lt;/span&gt;&lt;span style=&quot;color: #adbac7;&quot;&gt; &lt;/span&gt;&lt;span style=&quot;color: #f47067;&quot;&gt;&amp;lt;&lt;/span&gt;&lt;span style=&quot;color: #adbac7;&quot;&gt; &lt;/span&gt;&lt;span style=&quot;color: #dcbdfb;&quot;&gt;len&lt;/span&gt;&lt;span style=&quot;color: #adbac7;&quot;&gt;(&lt;/span&gt;&lt;span style=&quot;color: #f69d50;&quot;&gt;left_part&lt;/span&gt;&lt;span style=&quot;color: #adbac7;&quot;&gt;) &lt;/span&gt;&lt;span style=&quot;color: #f47067;&quot;&gt;and&lt;/span&gt;&lt;span style=&quot;color: #adbac7;&quot;&gt; &lt;/span&gt;&lt;span style=&quot;color: #adbac7;&quot;&gt;right_index&lt;/span&gt;&lt;span style=&quot;color: #adbac7;&quot;&gt; &lt;/span&gt;&lt;span style=&quot;color: #f47067;&quot;&gt;&amp;lt;&lt;/span&gt;&lt;span style=&quot;color: #adbac7;&quot;&gt; &lt;/span&gt;&lt;span style=&quot;color: #dcbdfb;&quot;&gt;len&lt;/span&gt;&lt;span style=&quot;color: #adbac7;&quot;&gt;(&lt;/span&gt;&lt;span style=&quot;color: #f69d50;&quot;&gt;right_part&lt;/span&gt;&lt;span style=&quot;color: #adbac7;&quot;&gt;):&lt;/span&gt;&lt;/div&gt;&lt;/div&gt;" style="rounded=1;whiteSpace=wrap;html=1;fontSize=20;" vertex="1" parent="1">
                    <mxGeometry x="-2358" y="2087.5" width="546" height="60" as="geometry"/>
                </mxCell>
                <mxCell id="267" value="" style="ellipse;whiteSpace=wrap;html=1;strokeWidth=2;fillWeight=2;hachureGap=8;fillColor=#990000;fillStyle=dots;sketch=1;fontSize=20;" vertex="1" parent="1">
                    <mxGeometry x="-1788" y="2087.5" width="120" height="60" as="geometry"/>
                </mxCell>
                <mxCell id="268" value="" style="ellipse;whiteSpace=wrap;html=1;strokeWidth=2;fillWeight=2;hachureGap=8;fillColor=#990000;fillStyle=dots;sketch=1;fontSize=20;" vertex="1" parent="1">
                    <mxGeometry x="-1812" y="2289.5" width="120" height="60" as="geometry"/>
                </mxCell>
                <mxCell id="269" value="" style="rounded=1;whiteSpace=wrap;html=1;strokeWidth=2;fillWeight=4;hachureGap=8;hachureAngle=45;fillColor=#008a00;sketch=1;fontSize=20;fontColor=#ffffff;strokeColor=#005700;" vertex="1" parent="1">
                    <mxGeometry x="-1802" y="2463.5" width="120" height="60" as="geometry"/>
                </mxCell>
                <mxCell id="270" value="[ 3, 5 , 7]" style="rounded=1;whiteSpace=wrap;html=1;fontSize=20;" vertex="1" parent="1">
                    <mxGeometry x="-1588" y="2489.5" width="120" height="60" as="geometry"/>
                </mxCell>
                <mxCell id="271" value="merged" style="rounded=1;whiteSpace=wrap;html=1;fontSize=20;" vertex="1" parent="1">
                    <mxGeometry x="-1588" y="2419.5" width="130" height="60" as="geometry"/>
                </mxCell>
                <mxCell id="273" value="1" style="whiteSpace=wrap;html=1;fontSize=20;rounded=1;" vertex="1" parent="1">
                    <mxGeometry x="-1438" y="2489.5" width="120" height="60" as="geometry"/>
                </mxCell>
                <mxCell id="274" value="right rindex" style="rounded=1;whiteSpace=wrap;html=1;fontSize=20;" vertex="1" parent="1">
                    <mxGeometry x="-1438" y="2419.5" width="120" height="60" as="geometry"/>
                </mxCell>
                <mxCell id="367" style="edgeStyle=none;html=1;exitX=1;exitY=0.5;exitDx=0;exitDy=0;fontSize=20;fillColor=#1ba1e2;strokeColor=#006EAF;" edge="1" parent="1" source="275">
                    <mxGeometry relative="1" as="geometry">
                        <mxPoint x="97.919921875" y="-470" as="targetPoint"/>
                    </mxGeometry>
                </mxCell>
                <mxCell id="368" value="357" style="edgeLabel;html=1;align=center;verticalAlign=middle;resizable=0;points=[];fontSize=20;" vertex="1" connectable="0" parent="367">
                    <mxGeometry x="0.8862" relative="1" as="geometry">
                        <mxPoint as="offset"/>
                    </mxGeometry>
                </mxCell>
                <mxCell id="275" value="возвращаем значение [ 3, 5 , 7]" style="shape=step;perimeter=stepPerimeter;whiteSpace=wrap;html=1;fixedSize=1;fontSize=20;" vertex="1" parent="1">
                    <mxGeometry x="-2192" y="2580" width="320" height="80" as="geometry"/>
                </mxCell>
                <mxCell id="279" value="6657" style="edgeStyle=none;html=1;exitX=0.5;exitY=1;exitDx=0;exitDy=0;entryX=0;entryY=0;entryDx=0;entryDy=0;fontSize=20;fillColor=#a20025;strokeColor=#6F0000;" edge="1" parent="1" source="277" target="278">
                    <mxGeometry relative="1" as="geometry"/>
                </mxCell>
                <mxCell id="406" style="edgeStyle=none;html=1;exitX=0.1;exitY=0.5;exitDx=0;exitDy=0;exitPerimeter=0;fontSize=20;" edge="1" parent="1" source="277">
                    <mxGeometry relative="1" as="geometry">
                        <mxPoint x="240" y="-340" as="targetPoint"/>
                    </mxGeometry>
                </mxCell>
                <mxCell id="277" value="" style="shape=curlyBracket;whiteSpace=wrap;html=1;rounded=1;flipH=1;labelPosition=right;verticalLabelPosition=middle;align=left;verticalAlign=middle;rotation=90;" vertex="1" parent="1">
                    <mxGeometry x="273" y="-540" width="20" height="120" as="geometry"/>
                </mxCell>
                <mxCell id="278" value="&lt;meta charset=&quot;utf-8&quot;&gt;&lt;div style=&quot;color: rgb(173, 186, 199); background-color: rgb(34, 39, 46); font-family: &amp;quot;JetBrains Mono&amp;quot;, Consolas, &amp;quot;Courier New&amp;quot;, monospace, Menlo, Monaco, &amp;quot;Courier New&amp;quot;, monospace; font-weight: normal; font-size: 12px; line-height: 17px;&quot;&gt;&lt;div&gt;&lt;span style=&quot;color: #f47067;&quot;&gt;def&lt;/span&gt;&lt;span style=&quot;color: #adbac7;&quot;&gt; &lt;/span&gt;&lt;span style=&quot;color: #dcbdfb;&quot;&gt;mergesort&lt;/span&gt;&lt;span style=&quot;color: #adbac7;&quot;&gt;(&lt;/span&gt;&lt;span style=&quot;color: #f69d50;&quot;&gt;arr&lt;/span&gt;&lt;span style=&quot;color: #adbac7;&quot;&gt;:&lt;/span&gt;&lt;span style=&quot;color: #f69d50;&quot;&gt;list&lt;/span&gt;&lt;span style=&quot;color: #adbac7;&quot;&gt;)-&amp;gt;&lt;/span&gt;&lt;span style=&quot;color: #f69d50;&quot;&gt;list&lt;/span&gt;&lt;span style=&quot;color: #adbac7;&quot;&gt;:&lt;/span&gt;&lt;/div&gt;&lt;/div&gt;" style="rounded=1;whiteSpace=wrap;html=1;" vertex="1" parent="1">
                    <mxGeometry x="1649" y="-410" width="500" height="30" as="geometry"/>
                </mxCell>
                <mxCell id="280" value="" style="edgeStyle=none;html=1;" edge="1" parent="1" source="281" target="282">
                    <mxGeometry relative="1" as="geometry"/>
                </mxCell>
                <mxCell id="281" value="найти длину" style="rounded=1;whiteSpace=wrap;html=1;" vertex="1" parent="1">
                    <mxGeometry x="1649" y="-380" width="120" height="60" as="geometry"/>
                </mxCell>
                <mxCell id="282" value="4" style="whiteSpace=wrap;html=1;rounded=1;" vertex="1" parent="1">
                    <mxGeometry x="1843" y="-380" width="120" height="60" as="geometry"/>
                </mxCell>
                <mxCell id="283" value="" style="edgeStyle=none;html=1;" edge="1" parent="1" target="285">
                    <mxGeometry relative="1" as="geometry">
                        <mxPoint x="1769" y="-270" as="sourcePoint"/>
                    </mxGeometry>
                </mxCell>
                <mxCell id="284" value="проверка на базовый случай" style="rounded=1;whiteSpace=wrap;html=1;" vertex="1" parent="1">
                    <mxGeometry x="1649" y="-310" width="120" height="60" as="geometry"/>
                </mxCell>
                <mxCell id="285" value="False" style="whiteSpace=wrap;html=1;rounded=1;" vertex="1" parent="1">
                    <mxGeometry x="1843" y="-300" width="120" height="60" as="geometry"/>
                </mxCell>
                <mxCell id="286" value="" style="edgeStyle=none;html=1;" edge="1" parent="1" target="291">
                    <mxGeometry relative="1" as="geometry">
                        <mxPoint x="1771" y="-180" as="sourcePoint"/>
                    </mxGeometry>
                </mxCell>
                <mxCell id="287" value="найти средину&amp;nbsp;" style="rounded=1;whiteSpace=wrap;html=1;" vertex="1" parent="1">
                    <mxGeometry x="1651" y="-220" width="120" height="60" as="geometry"/>
                </mxCell>
                <mxCell id="288" value="" style="edgeStyle=none;html=1;" edge="1" parent="1" target="292">
                    <mxGeometry relative="1" as="geometry">
                        <mxPoint x="1769" y="-90" as="sourcePoint"/>
                    </mxGeometry>
                </mxCell>
                <mxCell id="289" value="найти левую часть" style="rounded=1;whiteSpace=wrap;html=1;" vertex="1" parent="1">
                    <mxGeometry x="1649" y="-130" width="120" height="60" as="geometry"/>
                </mxCell>
                <mxCell id="290" value="" style="edgeStyle=none;html=1;" edge="1" parent="1">
                    <mxGeometry relative="1" as="geometry">
                        <mxPoint x="1769" as="sourcePoint"/>
                        <mxPoint x="1843" as="targetPoint"/>
                    </mxGeometry>
                </mxCell>
                <mxCell id="291" value="index_2" style="whiteSpace=wrap;html=1;rounded=1;" vertex="1" parent="1">
                    <mxGeometry x="1843" y="-210" width="120" height="60" as="geometry"/>
                </mxCell>
                <mxCell id="292" value="[&amp;nbsp; 6, 6 ]" style="whiteSpace=wrap;html=1;rounded=1;" vertex="1" parent="1">
                    <mxGeometry x="1843" y="-120" width="120" height="60" as="geometry"/>
                </mxCell>
                <mxCell id="293" value="[5, 7]" style="whiteSpace=wrap;html=1;rounded=1;" vertex="1" parent="1">
                    <mxGeometry x="1843" y="-40" width="120" height="60" as="geometry"/>
                </mxCell>
                <mxCell id="294" value="найти правую часть" style="rounded=1;whiteSpace=wrap;html=1;" vertex="1" parent="1">
                    <mxGeometry x="1649" y="-50" width="120" height="60" as="geometry"/>
                </mxCell>
                <mxCell id="295" value="&lt;meta charset=&quot;utf-8&quot;&gt;&lt;div style=&quot;color: rgb(173, 186, 199); background-color: rgb(34, 39, 46); font-family: &amp;quot;JetBrains Mono&amp;quot;, Consolas, &amp;quot;Courier New&amp;quot;, monospace, Menlo, Monaco, &amp;quot;Courier New&amp;quot;, monospace; font-weight: normal; font-size: 12px; line-height: 17px;&quot;&gt;&lt;div&gt;&lt;span style=&quot;color: #f47067;&quot;&gt;return&lt;/span&gt;&lt;span style=&quot;color: #adbac7;&quot;&gt; &lt;/span&gt;&lt;span style=&quot;color: #dcbdfb;&quot;&gt;merge&lt;/span&gt;&lt;span style=&quot;color: #adbac7;&quot;&gt;(&lt;/span&gt;&lt;span style=&quot;color: #dcbdfb;&quot;&gt;mergesort&lt;/span&gt;&lt;span style=&quot;color: #adbac7;&quot;&gt;(&lt;/span&gt;&lt;span style=&quot;color: #adbac7;&quot;&gt;left_half&lt;/span&gt;&lt;span style=&quot;color: #adbac7;&quot;&gt;), &lt;/span&gt;&lt;span style=&quot;color: #dcbdfb;&quot;&gt;mergesort&lt;/span&gt;&lt;span style=&quot;color: #adbac7;&quot;&gt;(&lt;/span&gt;&lt;span style=&quot;color: #adbac7;&quot;&gt;right_half&lt;/span&gt;&lt;span style=&quot;color: #adbac7;&quot;&gt;))&lt;/span&gt;&lt;/div&gt;&lt;/div&gt;" style="rounded=1;whiteSpace=wrap;html=1;" vertex="1" parent="1">
                    <mxGeometry x="1639" y="10" width="480" height="60" as="geometry"/>
                </mxCell>
                <mxCell id="296" value="" style="edgeStyle=none;html=1;" edge="1" parent="1">
                    <mxGeometry relative="1" as="geometry">
                        <mxPoint x="2082" y="445.25" as="sourcePoint"/>
                        <mxPoint x="2156" y="445.25" as="targetPoint"/>
                    </mxGeometry>
                </mxCell>
                <mxCell id="297" value="" style="edgeStyle=none;html=1;" edge="1" parent="1" source="298" target="299">
                    <mxGeometry relative="1" as="geometry"/>
                </mxCell>
                <mxCell id="298" value="проверка на базовый случай" style="rounded=1;whiteSpace=wrap;html=1;" vertex="1" parent="1">
                    <mxGeometry x="1962" y="495.25" width="120" height="60" as="geometry"/>
                </mxCell>
                <mxCell id="299" value="False" style="whiteSpace=wrap;html=1;rounded=1;" vertex="1" parent="1">
                    <mxGeometry x="2156" y="495.25" width="120" height="60" as="geometry"/>
                </mxCell>
                <mxCell id="300" value="" style="edgeStyle=none;html=1;" edge="1" parent="1" source="301" target="305">
                    <mxGeometry relative="1" as="geometry"/>
                </mxCell>
                <mxCell id="301" value="найти средину&amp;nbsp;" style="rounded=1;whiteSpace=wrap;html=1;" vertex="1" parent="1">
                    <mxGeometry x="1963" y="585.25" width="120" height="60" as="geometry"/>
                </mxCell>
                <mxCell id="302" value="" style="edgeStyle=none;html=1;" edge="1" parent="1" source="303" target="306">
                    <mxGeometry relative="1" as="geometry"/>
                </mxCell>
                <mxCell id="303" value="найти левую часть" style="rounded=1;whiteSpace=wrap;html=1;" vertex="1" parent="1">
                    <mxGeometry x="1962" y="665.25" width="120" height="60" as="geometry"/>
                </mxCell>
                <mxCell id="304" value="" style="edgeStyle=none;html=1;" edge="1" parent="1">
                    <mxGeometry relative="1" as="geometry">
                        <mxPoint x="2083" y="785.25" as="sourcePoint"/>
                        <mxPoint x="2157" y="785.25" as="targetPoint"/>
                    </mxGeometry>
                </mxCell>
                <mxCell id="305" value="index_2" style="whiteSpace=wrap;html=1;rounded=1;" vertex="1" parent="1">
                    <mxGeometry x="2155" y="585.25" width="120" height="60" as="geometry"/>
                </mxCell>
                <mxCell id="306" value="[ 5 ]" style="whiteSpace=wrap;html=1;rounded=1;" vertex="1" parent="1">
                    <mxGeometry x="2156" y="666.25" width="120" height="60" as="geometry"/>
                </mxCell>
                <mxCell id="307" value="[ 7 ]" style="whiteSpace=wrap;html=1;rounded=1;" vertex="1" parent="1">
                    <mxGeometry x="2156" y="755.25" width="120" height="60" as="geometry"/>
                </mxCell>
                <mxCell id="308" value="найти правую часть" style="rounded=1;whiteSpace=wrap;html=1;" vertex="1" parent="1">
                    <mxGeometry x="1963" y="755.25" width="120" height="60" as="geometry"/>
                </mxCell>
                <mxCell id="309" value="4" style="whiteSpace=wrap;html=1;rounded=1;" vertex="1" parent="1">
                    <mxGeometry x="2156" y="414.75" width="120" height="60" as="geometry"/>
                </mxCell>
                <mxCell id="310" value="найти длину" style="rounded=1;whiteSpace=wrap;html=1;" vertex="1" parent="1">
                    <mxGeometry x="1950" y="414.75" width="120" height="60" as="geometry"/>
                </mxCell>
                <mxCell id="311" value="" style="edgeStyle=none;html=1;" edge="1" parent="1">
                    <mxGeometry relative="1" as="geometry">
                        <mxPoint x="1082" y="450.5" as="sourcePoint"/>
                        <mxPoint x="1156" y="450.5" as="targetPoint"/>
                    </mxGeometry>
                </mxCell>
                <mxCell id="312" value="" style="edgeStyle=none;html=1;" edge="1" parent="1" source="313" target="314">
                    <mxGeometry relative="1" as="geometry"/>
                </mxCell>
                <mxCell id="313" value="проверка на базовый случай" style="rounded=1;whiteSpace=wrap;html=1;" vertex="1" parent="1">
                    <mxGeometry x="962" y="500.5" width="120" height="60" as="geometry"/>
                </mxCell>
                <mxCell id="314" value="False" style="whiteSpace=wrap;html=1;rounded=1;" vertex="1" parent="1">
                    <mxGeometry x="1156" y="500.5" width="120" height="60" as="geometry"/>
                </mxCell>
                <mxCell id="315" value="" style="edgeStyle=none;html=1;" edge="1" parent="1" source="316" target="320">
                    <mxGeometry relative="1" as="geometry"/>
                </mxCell>
                <mxCell id="316" value="найти средину&amp;nbsp;" style="rounded=1;whiteSpace=wrap;html=1;" vertex="1" parent="1">
                    <mxGeometry x="964" y="590.5" width="120" height="60" as="geometry"/>
                </mxCell>
                <mxCell id="317" value="" style="edgeStyle=none;html=1;" edge="1" parent="1" source="318" target="321">
                    <mxGeometry relative="1" as="geometry"/>
                </mxCell>
                <mxCell id="318" value="найти левую часть" style="rounded=1;whiteSpace=wrap;html=1;" vertex="1" parent="1">
                    <mxGeometry x="962" y="680.5" width="120" height="60" as="geometry"/>
                </mxCell>
                <mxCell id="319" value="" style="edgeStyle=none;html=1;" edge="1" parent="1">
                    <mxGeometry relative="1" as="geometry">
                        <mxPoint x="1082" y="800.5" as="sourcePoint"/>
                        <mxPoint x="1156" y="800.5" as="targetPoint"/>
                    </mxGeometry>
                </mxCell>
                <mxCell id="320" value="index_2" style="whiteSpace=wrap;html=1;rounded=1;" vertex="1" parent="1">
                    <mxGeometry x="1156" y="590.5" width="120" height="60" as="geometry"/>
                </mxCell>
                <mxCell id="321" value="[&amp;nbsp; 6 ]&amp;nbsp;&amp;nbsp;&lt;br&gt;" style="whiteSpace=wrap;html=1;rounded=1;" vertex="1" parent="1">
                    <mxGeometry x="1156" y="680.5" width="120" height="60" as="geometry"/>
                </mxCell>
                <mxCell id="322" value="[ 6 ]" style="whiteSpace=wrap;html=1;rounded=1;" vertex="1" parent="1">
                    <mxGeometry x="1156" y="760.5" width="120" height="60" as="geometry"/>
                </mxCell>
                <mxCell id="323" value="найти правую часть" style="rounded=1;whiteSpace=wrap;html=1;" vertex="1" parent="1">
                    <mxGeometry x="962" y="760.5" width="120" height="60" as="geometry"/>
                </mxCell>
                <mxCell id="324" value="4" style="whiteSpace=wrap;html=1;rounded=1;" vertex="1" parent="1">
                    <mxGeometry x="1156" y="420" width="120" height="60" as="geometry"/>
                </mxCell>
                <mxCell id="325" value="найти длину" style="rounded=1;whiteSpace=wrap;html=1;" vertex="1" parent="1">
                    <mxGeometry x="950" y="420" width="120" height="60" as="geometry"/>
                </mxCell>
                <mxCell id="370" value="66" style="edgeStyle=none;html=1;exitX=0.75;exitY=1;exitDx=0;exitDy=0;fontSize=20;fillColor=#a20025;strokeColor=#6F0000;" edge="1" parent="1" source="328" target="330">
                    <mxGeometry relative="1" as="geometry"/>
                </mxCell>
                <mxCell id="328" value="" style="shape=curlyBracket;whiteSpace=wrap;html=1;rounded=1;flipH=1;labelPosition=right;verticalLabelPosition=middle;align=left;verticalAlign=middle;rotation=90;" vertex="1" parent="1">
                    <mxGeometry x="1829" y="30" width="20" height="120" as="geometry"/>
                </mxCell>
                <mxCell id="330" value="&lt;meta charset=&quot;utf-8&quot;&gt;&lt;div style=&quot;color: rgb(173, 186, 199); background-color: rgb(34, 39, 46); font-family: &amp;quot;JetBrains Mono&amp;quot;, Consolas, &amp;quot;Courier New&amp;quot;, monospace, Menlo, Monaco, &amp;quot;Courier New&amp;quot;, monospace; font-weight: normal; font-size: 12px; line-height: 17px;&quot;&gt;&lt;div&gt;&lt;span style=&quot;color: #f47067;&quot;&gt;def&lt;/span&gt;&lt;span style=&quot;color: #adbac7;&quot;&gt; &lt;/span&gt;&lt;span style=&quot;color: #dcbdfb;&quot;&gt;mergesort&lt;/span&gt;&lt;span style=&quot;color: #adbac7;&quot;&gt;(&lt;/span&gt;&lt;span style=&quot;color: #f69d50;&quot;&gt;arr&lt;/span&gt;&lt;span style=&quot;color: #adbac7;&quot;&gt;:&lt;/span&gt;&lt;span style=&quot;color: #f69d50;&quot;&gt;list&lt;/span&gt;&lt;span style=&quot;color: #adbac7;&quot;&gt;)-&amp;gt;&lt;/span&gt;&lt;span style=&quot;color: #f69d50;&quot;&gt;list&lt;/span&gt;&lt;span style=&quot;color: #adbac7;&quot;&gt;:&lt;/span&gt;&lt;/div&gt;&lt;/div&gt;" style="rounded=1;whiteSpace=wrap;html=1;" vertex="1" parent="1">
                    <mxGeometry x="950" y="390" width="500" height="30" as="geometry"/>
                </mxCell>
                <mxCell id="331" value="&lt;meta charset=&quot;utf-8&quot;&gt;&lt;div style=&quot;color: rgb(173, 186, 199); background-color: rgb(34, 39, 46); font-family: &amp;quot;JetBrains Mono&amp;quot;, Consolas, &amp;quot;Courier New&amp;quot;, monospace, Menlo, Monaco, &amp;quot;Courier New&amp;quot;, monospace; font-weight: normal; font-size: 12px; line-height: 17px;&quot;&gt;&lt;div&gt;&lt;span style=&quot;color: #f47067;&quot;&gt;def&lt;/span&gt;&lt;span style=&quot;color: #adbac7;&quot;&gt; &lt;/span&gt;&lt;span style=&quot;color: #dcbdfb;&quot;&gt;mergesort&lt;/span&gt;&lt;span style=&quot;color: #adbac7;&quot;&gt;(&lt;/span&gt;&lt;span style=&quot;color: #f69d50;&quot;&gt;arr&lt;/span&gt;&lt;span style=&quot;color: #adbac7;&quot;&gt;:&lt;/span&gt;&lt;span style=&quot;color: #f69d50;&quot;&gt;list&lt;/span&gt;&lt;span style=&quot;color: #adbac7;&quot;&gt;)-&amp;gt;&lt;/span&gt;&lt;span style=&quot;color: #f69d50;&quot;&gt;list&lt;/span&gt;&lt;span style=&quot;color: #adbac7;&quot;&gt;:&lt;/span&gt;&lt;/div&gt;&lt;/div&gt;" style="rounded=1;whiteSpace=wrap;html=1;" vertex="1" parent="1">
                    <mxGeometry x="1963" y="375" width="500" height="30" as="geometry"/>
                </mxCell>
                <mxCell id="377" style="edgeStyle=none;html=1;exitX=0.5;exitY=1;exitDx=0;exitDy=0;fontSize=20;" edge="1" parent="1" source="332">
                    <mxGeometry relative="1" as="geometry">
                        <mxPoint x="1180" y="1150" as="targetPoint"/>
                    </mxGeometry>
                </mxCell>
                <mxCell id="332" value="&lt;meta charset=&quot;utf-8&quot;&gt;&lt;div style=&quot;color: rgb(173, 186, 199); background-color: rgb(34, 39, 46); font-family: &amp;quot;JetBrains Mono&amp;quot;, Consolas, &amp;quot;Courier New&amp;quot;, monospace, Menlo, Monaco, &amp;quot;Courier New&amp;quot;, monospace; font-weight: normal; font-size: 12px; line-height: 17px;&quot;&gt;&lt;div&gt;&lt;span style=&quot;color: #f47067;&quot;&gt;return&lt;/span&gt;&lt;span style=&quot;color: #adbac7;&quot;&gt; &lt;/span&gt;&lt;span style=&quot;color: #dcbdfb;&quot;&gt;merge&lt;/span&gt;&lt;span style=&quot;color: #adbac7;&quot;&gt;(&lt;/span&gt;&lt;span style=&quot;color: #dcbdfb;&quot;&gt;mergesort&lt;/span&gt;&lt;span style=&quot;color: #adbac7;&quot;&gt;(&lt;/span&gt;&lt;span style=&quot;color: #adbac7;&quot;&gt;left_half&lt;/span&gt;&lt;span style=&quot;color: #adbac7;&quot;&gt;), &lt;/span&gt;&lt;span style=&quot;color: #dcbdfb;&quot;&gt;mergesort&lt;/span&gt;&lt;span style=&quot;color: #adbac7;&quot;&gt;(&lt;/span&gt;&lt;span style=&quot;color: #adbac7;&quot;&gt;right_half&lt;/span&gt;&lt;span style=&quot;color: #adbac7;&quot;&gt;))&lt;/span&gt;&lt;/div&gt;&lt;/div&gt;" style="rounded=1;whiteSpace=wrap;html=1;" vertex="1" parent="1">
                    <mxGeometry x="940" y="830" width="480" height="60" as="geometry"/>
                </mxCell>
                <mxCell id="401" style="edgeStyle=none;html=1;exitX=0.5;exitY=1;exitDx=0;exitDy=0;fontSize=20;" edge="1" parent="1" source="333">
                    <mxGeometry relative="1" as="geometry">
                        <mxPoint x="2460" y="1350" as="targetPoint"/>
                        <Array as="points">
                            <mxPoint x="2440" y="1070"/>
                        </Array>
                    </mxGeometry>
                </mxCell>
                <mxCell id="333" value="&lt;meta charset=&quot;utf-8&quot;&gt;&lt;div style=&quot;color: rgb(173, 186, 199); background-color: rgb(34, 39, 46); font-family: &amp;quot;JetBrains Mono&amp;quot;, Consolas, &amp;quot;Courier New&amp;quot;, monospace, Menlo, Monaco, &amp;quot;Courier New&amp;quot;, monospace; font-weight: normal; font-size: 12px; line-height: 17px;&quot;&gt;&lt;div&gt;&lt;span style=&quot;color: #f47067;&quot;&gt;return&lt;/span&gt;&lt;span style=&quot;color: #adbac7;&quot;&gt; &lt;/span&gt;&lt;span style=&quot;color: #dcbdfb;&quot;&gt;merge&lt;/span&gt;&lt;span style=&quot;color: #adbac7;&quot;&gt;(&lt;/span&gt;&lt;span style=&quot;color: #dcbdfb;&quot;&gt;mergesort&lt;/span&gt;&lt;span style=&quot;color: #adbac7;&quot;&gt;(&lt;/span&gt;&lt;span style=&quot;color: #adbac7;&quot;&gt;left_half&lt;/span&gt;&lt;span style=&quot;color: #adbac7;&quot;&gt;), &lt;/span&gt;&lt;span style=&quot;color: #dcbdfb;&quot;&gt;mergesort&lt;/span&gt;&lt;span style=&quot;color: #adbac7;&quot;&gt;(&lt;/span&gt;&lt;span style=&quot;color: #adbac7;&quot;&gt;right_half&lt;/span&gt;&lt;span style=&quot;color: #adbac7;&quot;&gt;))&lt;/span&gt;&lt;/div&gt;&lt;/div&gt;" style="rounded=1;whiteSpace=wrap;html=1;" vertex="1" parent="1">
                    <mxGeometry x="1890" y="830" width="480" height="60" as="geometry"/>
                </mxCell>
                <mxCell id="352" style="edgeStyle=none;html=1;exitX=1;exitY=0.5;exitDx=0;exitDy=0;entryX=0.5;entryY=0;entryDx=0;entryDy=0;fontSize=20;fillColor=#008a00;strokeColor=#005700;" edge="1" parent="1" source="351" target="105">
                    <mxGeometry relative="1" as="geometry">
                        <Array as="points">
                            <mxPoint x="-300" y="1080"/>
                        </Array>
                    </mxGeometry>
                </mxCell>
                <mxCell id="351" value="возвращаем значение 7" style="shape=step;perimeter=stepPerimeter;whiteSpace=wrap;html=1;fixedSize=1;fontSize=20;" vertex="1" parent="1">
                    <mxGeometry x="-850" y="1210.5" width="320" height="80" as="geometry"/>
                </mxCell>
                <mxCell id="356" value="возвращаем значение&amp;nbsp; [ 3 , 7]" style="shape=step;perimeter=stepPerimeter;whiteSpace=wrap;html=1;fixedSize=1;fontSize=20;" vertex="1" parent="1">
                    <mxGeometry x="38" y="1584" width="320" height="80" as="geometry"/>
                </mxCell>
                <mxCell id="361" value="" style="shape=flexArrow;endArrow=classic;html=1;fontSize=20;" edge="1" parent="1">
                    <mxGeometry width="50" height="50" relative="1" as="geometry">
                        <mxPoint x="-280" y="870" as="sourcePoint"/>
                        <mxPoint x="-279.5" y="1470.5" as="targetPoint"/>
                        <Array as="points">
                            <mxPoint x="-279.5" y="1440.5"/>
                        </Array>
                    </mxGeometry>
                </mxCell>
                <mxCell id="362" value="&lt;meta charset=&quot;utf-8&quot;&gt;&lt;div style=&quot;color: rgb(173, 186, 199); background-color: rgb(34, 39, 46); font-family: &amp;quot;JetBrains Mono&amp;quot;, Consolas, &amp;quot;Courier New&amp;quot;, monospace, Menlo, Monaco, &amp;quot;Courier New&amp;quot;, monospace; font-weight: normal; font-size: 12px; line-height: 17px;&quot;&gt;&lt;div&gt;&lt;span style=&quot;color: #f47067;&quot;&gt;return&lt;/span&gt;&lt;span style=&quot;color: #adbac7;&quot;&gt; &lt;/span&gt;&lt;span style=&quot;color: #dcbdfb;&quot;&gt;merge&lt;/span&gt;&lt;span style=&quot;color: #adbac7;&quot;&gt;(&lt;/span&gt;&lt;span style=&quot;color: #dcbdfb;&quot;&gt;mergesort&lt;/span&gt;&lt;span style=&quot;color: #adbac7;&quot;&gt;(&lt;/span&gt;&lt;span style=&quot;color: #adbac7;&quot;&gt;left_half&lt;/span&gt;&lt;span style=&quot;color: #adbac7;&quot;&gt;), &lt;/span&gt;&lt;span style=&quot;color: #dcbdfb;&quot;&gt;mergesort&lt;/span&gt;&lt;span style=&quot;color: #adbac7;&quot;&gt;(&lt;/span&gt;&lt;span style=&quot;color: #adbac7;&quot;&gt;right_half&lt;/span&gt;&lt;span style=&quot;color: #adbac7;&quot;&gt;))&lt;/span&gt;&lt;/div&gt;&lt;/div&gt;" style="rounded=1;whiteSpace=wrap;html=1;" vertex="1" parent="1">
                    <mxGeometry x="-548" y="1470" width="480" height="59.5" as="geometry"/>
                </mxCell>
                <mxCell id="363" value="" style="shape=flexArrow;endArrow=classic;html=1;fontSize=20;" edge="1" parent="1">
                    <mxGeometry width="50" height="50" relative="1" as="geometry">
                        <mxPoint x="-1002" y="224.75" as="sourcePoint"/>
                        <mxPoint x="-1880" y="790" as="targetPoint"/>
                        <Array as="points"/>
                    </mxGeometry>
                </mxCell>
                <mxCell id="364" value="&lt;meta charset=&quot;utf-8&quot;&gt;&lt;div style=&quot;color: rgb(173, 186, 199); background-color: rgb(34, 39, 46); font-family: &amp;quot;JetBrains Mono&amp;quot;, Consolas, &amp;quot;Courier New&amp;quot;, monospace, Menlo, Monaco, &amp;quot;Courier New&amp;quot;, monospace; font-weight: normal; font-size: 12px; line-height: 17px;&quot;&gt;&lt;div&gt;&lt;span style=&quot;color: #f47067;&quot;&gt;return&lt;/span&gt;&lt;span style=&quot;color: #adbac7;&quot;&gt; &lt;/span&gt;&lt;span style=&quot;color: #dcbdfb;&quot;&gt;merge&lt;/span&gt;&lt;span style=&quot;color: #adbac7;&quot;&gt;(&lt;/span&gt;&lt;span style=&quot;color: #dcbdfb;&quot;&gt;mergesort&lt;/span&gt;&lt;span style=&quot;color: #adbac7;&quot;&gt;(&lt;/span&gt;&lt;span style=&quot;color: #adbac7;&quot;&gt;left_half&lt;/span&gt;&lt;span style=&quot;color: #adbac7;&quot;&gt;), &lt;/span&gt;&lt;span style=&quot;color: #dcbdfb;&quot;&gt;mergesort&lt;/span&gt;&lt;span style=&quot;color: #adbac7;&quot;&gt;(&lt;/span&gt;&lt;span style=&quot;color: #adbac7;&quot;&gt;right_half&lt;/span&gt;&lt;span style=&quot;color: #adbac7;&quot;&gt;))&lt;/span&gt;&lt;/div&gt;&lt;/div&gt;" style="rounded=1;whiteSpace=wrap;html=1;" vertex="1" parent="1">
                    <mxGeometry x="-2190" y="912" width="470" height="60" as="geometry"/>
                </mxCell>
                <mxCell id="365" value="" style="shape=image;html=1;verticalLabelPosition=bottom;verticalAlign=top;imageAspect=1;aspect=fixed;image=img/clipart/Gear_128x128.png;fontSize=20;" vertex="1" parent="1">
                    <mxGeometry x="-1832" y="780" width="52" height="61" as="geometry"/>
                </mxCell>
                <mxCell id="366" value="выполнение функции слияние после того как розбили на одиночные елементы" style="text;html=1;strokeColor=none;fillColor=none;align=center;verticalAlign=middle;whiteSpace=wrap;rounded=0;fontSize=20;" vertex="1" parent="1">
                    <mxGeometry x="-2079" y="800" width="224" height="120" as="geometry"/>
                </mxCell>
                <mxCell id="373" value="6" style="edgeStyle=none;html=1;exitX=1;exitY=0.75;exitDx=0;exitDy=0;fontSize=20;fillColor=#a20025;strokeColor=#6F0000;" edge="1" parent="1" source="371">
                    <mxGeometry relative="1" as="geometry">
                        <mxPoint x="1010" y="1020" as="targetPoint"/>
                        <Array as="points">
                            <mxPoint x="1080" y="960"/>
                        </Array>
                    </mxGeometry>
                </mxCell>
                <mxCell id="371" value="" style="shape=curlyBracket;whiteSpace=wrap;html=1;rounded=1;flipH=1;labelPosition=right;verticalLabelPosition=middle;align=left;verticalAlign=middle;rotation=90;" vertex="1" parent="1">
                    <mxGeometry x="1156" y="841" width="20" height="120" as="geometry"/>
                </mxCell>
                <mxCell id="376" value="6" style="edgeStyle=none;html=1;exitX=0.1;exitY=0.5;exitDx=0;exitDy=0;exitPerimeter=0;entryX=0.5;entryY=0;entryDx=0;entryDy=0;fontSize=20;fillColor=#a20025;strokeColor=#6F0000;" edge="1" parent="1" source="372" target="375">
                    <mxGeometry relative="1" as="geometry"/>
                </mxCell>
                <mxCell id="372" value="" style="shape=curlyBracket;whiteSpace=wrap;html=1;rounded=1;flipH=1;labelPosition=right;verticalLabelPosition=middle;align=left;verticalAlign=middle;rotation=90;" vertex="1" parent="1">
                    <mxGeometry x="1320" y="841" width="20" height="120" as="geometry"/>
                </mxCell>
                <mxCell id="379" value="6" style="edgeStyle=none;html=1;exitX=1;exitY=0.25;exitDx=0;exitDy=0;entryX=0.5;entryY=0;entryDx=0;entryDy=0;fontSize=20;fillColor=#008a00;strokeColor=#005700;" edge="1" parent="1" source="374" target="371">
                    <mxGeometry relative="1" as="geometry">
                        <Array as="points">
                            <mxPoint x="1120" y="970"/>
                        </Array>
                    </mxGeometry>
                </mxCell>
                <mxCell id="374" value="базовый случай" style="rounded=1;whiteSpace=wrap;html=1;fontSize=20;" vertex="1" parent="1">
                    <mxGeometry x="903" y="1022" width="120" height="60" as="geometry"/>
                </mxCell>
                <mxCell id="380" value="6" style="edgeStyle=none;html=1;exitX=0.75;exitY=0;exitDx=0;exitDy=0;entryX=0.25;entryY=0.2;entryDx=0;entryDy=0;entryPerimeter=0;fontSize=20;fillColor=#008a00;strokeColor=#005700;" edge="1" parent="1" source="375" target="372">
                    <mxGeometry relative="1" as="geometry"/>
                </mxCell>
                <mxCell id="375" value="базовый случай" style="rounded=1;whiteSpace=wrap;html=1;fontSize=20;" vertex="1" parent="1">
                    <mxGeometry x="1350" y="1015.5" width="120" height="60" as="geometry"/>
                </mxCell>
                <mxCell id="385" value="66" style="edgeStyle=none;html=1;exitX=1;exitY=0.5;exitDx=0;exitDy=0;fontSize=20;entryX=0.25;entryY=0.2;entryDx=0;entryDy=0;entryPerimeter=0;fillColor=#1ba1e2;strokeColor=#006EAF;" edge="1" parent="1" source="378" target="328">
                    <mxGeometry relative="1" as="geometry">
                        <mxPoint x="1830" y="240" as="targetPoint"/>
                    </mxGeometry>
                </mxCell>
                <mxCell id="378" value="&lt;meta charset=&quot;utf-8&quot;&gt;&lt;div style=&quot;color: rgb(173, 186, 199); background-color: rgb(34, 39, 46); font-family: &amp;quot;JetBrains Mono&amp;quot;, Consolas, &amp;quot;Courier New&amp;quot;, monospace, Menlo, Monaco, &amp;quot;Courier New&amp;quot;, monospace; font-weight: normal; font-size: 12px; line-height: 17px;&quot;&gt;&lt;div&gt;&lt;span style=&quot;color: #f47067;&quot;&gt;return&lt;/span&gt;&lt;span style=&quot;color: #adbac7;&quot;&gt; &lt;/span&gt;&lt;span style=&quot;color: #dcbdfb;&quot;&gt;merge&lt;/span&gt;&lt;span style=&quot;color: #adbac7;&quot;&gt;(&lt;/span&gt;&lt;span style=&quot;color: #dcbdfb;&quot;&gt;mergesort&lt;/span&gt;&lt;span style=&quot;color: #adbac7;&quot;&gt;(&lt;/span&gt;&lt;span style=&quot;color: #adbac7;&quot;&gt;left_half&lt;/span&gt;&lt;span style=&quot;color: #adbac7;&quot;&gt;), &lt;/span&gt;&lt;span style=&quot;color: #dcbdfb;&quot;&gt;mergesort&lt;/span&gt;&lt;span style=&quot;color: #adbac7;&quot;&gt;(&lt;/span&gt;&lt;span style=&quot;color: #adbac7;&quot;&gt;right_half&lt;/span&gt;&lt;span style=&quot;color: #adbac7;&quot;&gt;))&lt;/span&gt;&lt;/div&gt;&lt;/div&gt;" style="rounded=1;whiteSpace=wrap;html=1;" vertex="1" parent="1">
                    <mxGeometry x="950" y="1150.5" width="480" height="60" as="geometry"/>
                </mxCell>
                <mxCell id="382" value="&lt;meta charset=&quot;utf-8&quot;&gt;&lt;div style=&quot;color: rgb(173, 186, 199); background-color: rgb(34, 39, 46); font-family: &amp;quot;JetBrains Mono&amp;quot;, Consolas, &amp;quot;Courier New&amp;quot;, monospace, Menlo, Monaco, &amp;quot;Courier New&amp;quot;, monospace; font-weight: normal; font-size: 12px; line-height: 17px;&quot;&gt;&lt;div&gt;&lt;span style=&quot;color: #f47067;&quot;&gt;def&lt;/span&gt;&lt;span style=&quot;color: #adbac7;&quot;&gt; &lt;/span&gt;&lt;span style=&quot;color: #dcbdfb;&quot;&gt;mergesort&lt;/span&gt;&lt;span style=&quot;color: #adbac7;&quot;&gt;(&lt;/span&gt;&lt;span style=&quot;color: #f69d50;&quot;&gt;arr&lt;/span&gt;&lt;span style=&quot;color: #adbac7;&quot;&gt;:&lt;/span&gt;&lt;span style=&quot;color: #f69d50;&quot;&gt;list&lt;/span&gt;&lt;span style=&quot;color: #adbac7;&quot;&gt;)-&amp;gt;&lt;/span&gt;&lt;span style=&quot;color: #f69d50;&quot;&gt;list&lt;/span&gt;&lt;span style=&quot;color: #adbac7;&quot;&gt;:&lt;/span&gt;&lt;/div&gt;&lt;/div&gt;" style="rounded=1;whiteSpace=wrap;html=1;" vertex="1" parent="1">
                    <mxGeometry x="1290" y="1082" width="500" height="30" as="geometry"/>
                </mxCell>
                <mxCell id="383" value="&lt;meta charset=&quot;utf-8&quot;&gt;&lt;div style=&quot;color: rgb(173, 186, 199); background-color: rgb(34, 39, 46); font-family: &amp;quot;JetBrains Mono&amp;quot;, Consolas, &amp;quot;Courier New&amp;quot;, monospace, Menlo, Monaco, &amp;quot;Courier New&amp;quot;, monospace; font-weight: normal; font-size: 12px; line-height: 17px;&quot;&gt;&lt;div&gt;&lt;span style=&quot;color: #f47067;&quot;&gt;def&lt;/span&gt;&lt;span style=&quot;color: #adbac7;&quot;&gt; &lt;/span&gt;&lt;span style=&quot;color: #dcbdfb;&quot;&gt;mergesort&lt;/span&gt;&lt;span style=&quot;color: #adbac7;&quot;&gt;(&lt;/span&gt;&lt;span style=&quot;color: #f69d50;&quot;&gt;arr&lt;/span&gt;&lt;span style=&quot;color: #adbac7;&quot;&gt;:&lt;/span&gt;&lt;span style=&quot;color: #f69d50;&quot;&gt;list&lt;/span&gt;&lt;span style=&quot;color: #adbac7;&quot;&gt;)-&amp;gt;&lt;/span&gt;&lt;span style=&quot;color: #f69d50;&quot;&gt;list&lt;/span&gt;&lt;span style=&quot;color: #adbac7;&quot;&gt;:&lt;/span&gt;&lt;/div&gt;&lt;/div&gt;" style="rounded=1;whiteSpace=wrap;html=1;" vertex="1" parent="1">
                    <mxGeometry x="640" y="1089.5" width="500" height="30" as="geometry"/>
                </mxCell>
                <mxCell id="384" value="" style="shape=image;html=1;verticalLabelPosition=bottom;verticalAlign=top;imageAspect=0;image=img/clipart/Gear_128x128.png;fontSize=20;" vertex="1" parent="1">
                    <mxGeometry x="1191" y="1091" width="50" height="60" as="geometry"/>
                </mxCell>
                <mxCell id="403" value="57" style="edgeStyle=none;html=1;exitX=0.5;exitY=1;exitDx=0;exitDy=0;entryX=0.146;entryY=-0.013;entryDx=0;entryDy=0;entryPerimeter=0;fontSize=20;fillColor=#a20025;strokeColor=#6F0000;" edge="1" parent="1" source="386" target="331">
                    <mxGeometry relative="1" as="geometry"/>
                </mxCell>
                <mxCell id="386" value="" style="shape=curlyBracket;whiteSpace=wrap;html=1;rounded=1;flipH=1;labelPosition=right;verticalLabelPosition=middle;align=left;verticalAlign=middle;rotation=90;" vertex="1" parent="1">
                    <mxGeometry x="2030" y="20" width="20" height="120" as="geometry"/>
                </mxCell>
                <mxCell id="387" value="базовый случай" style="rounded=1;whiteSpace=wrap;html=1;fontSize=20;" vertex="1" parent="1">
                    <mxGeometry x="2030" y="1000.5" width="120" height="60" as="geometry"/>
                </mxCell>
                <mxCell id="388" value="базовый случай" style="rounded=1;whiteSpace=wrap;html=1;fontSize=20;" vertex="1" parent="1">
                    <mxGeometry x="2529" y="992" width="120" height="60" as="geometry"/>
                </mxCell>
                <mxCell id="402" value="57" style="edgeStyle=none;html=1;exitX=0.75;exitY=0;exitDx=0;exitDy=0;fontSize=20;entryX=0.5;entryY=0;entryDx=0;entryDy=0;fillColor=#1ba1e2;strokeColor=#006EAF;" edge="1" parent="1" source="389" target="386">
                    <mxGeometry relative="1" as="geometry"/>
                </mxCell>
                <mxCell id="389" value="&lt;meta charset=&quot;utf-8&quot;&gt;&lt;div style=&quot;color: rgb(173, 186, 199); background-color: rgb(34, 39, 46); font-family: &amp;quot;JetBrains Mono&amp;quot;, Consolas, &amp;quot;Courier New&amp;quot;, monospace, Menlo, Monaco, &amp;quot;Courier New&amp;quot;, monospace; font-weight: normal; font-size: 12px; line-height: 17px;&quot;&gt;&lt;div&gt;&lt;span style=&quot;color: #f47067;&quot;&gt;return&lt;/span&gt;&lt;span style=&quot;color: #adbac7;&quot;&gt; &lt;/span&gt;&lt;span style=&quot;color: #dcbdfb;&quot;&gt;merge&lt;/span&gt;&lt;span style=&quot;color: #adbac7;&quot;&gt;(&lt;/span&gt;&lt;span style=&quot;color: #dcbdfb;&quot;&gt;mergesort&lt;/span&gt;&lt;span style=&quot;color: #adbac7;&quot;&gt;(&lt;/span&gt;&lt;span style=&quot;color: #adbac7;&quot;&gt;left_half&lt;/span&gt;&lt;span style=&quot;color: #adbac7;&quot;&gt;), &lt;/span&gt;&lt;span style=&quot;color: #dcbdfb;&quot;&gt;mergesort&lt;/span&gt;&lt;span style=&quot;color: #adbac7;&quot;&gt;(&lt;/span&gt;&lt;span style=&quot;color: #adbac7;&quot;&gt;right_half&lt;/span&gt;&lt;span style=&quot;color: #adbac7;&quot;&gt;))&lt;/span&gt;&lt;/div&gt;&lt;/div&gt;" style="rounded=1;whiteSpace=wrap;html=1;" vertex="1" parent="1">
                    <mxGeometry x="2200" y="1360" width="480" height="60" as="geometry"/>
                </mxCell>
                <mxCell id="400" value="7" style="edgeStyle=none;html=1;exitX=0.75;exitY=0;exitDx=0;exitDy=0;entryX=0.5;entryY=0;entryDx=0;entryDy=0;fontSize=20;fillColor=#008a00;strokeColor=#005700;" edge="1" parent="1" source="390" target="398">
                    <mxGeometry relative="1" as="geometry"/>
                </mxCell>
                <mxCell id="390" value="&lt;meta charset=&quot;utf-8&quot;&gt;&lt;div style=&quot;color: rgb(173, 186, 199); background-color: rgb(34, 39, 46); font-family: &amp;quot;JetBrains Mono&amp;quot;, Consolas, &amp;quot;Courier New&amp;quot;, monospace, Menlo, Monaco, &amp;quot;Courier New&amp;quot;, monospace; font-weight: normal; font-size: 12px; line-height: 17px;&quot;&gt;&lt;div&gt;&lt;span style=&quot;color: #f47067;&quot;&gt;def&lt;/span&gt;&lt;span style=&quot;color: #adbac7;&quot;&gt; &lt;/span&gt;&lt;span style=&quot;color: #dcbdfb;&quot;&gt;mergesort&lt;/span&gt;&lt;span style=&quot;color: #adbac7;&quot;&gt;(&lt;/span&gt;&lt;span style=&quot;color: #f69d50;&quot;&gt;arr&lt;/span&gt;&lt;span style=&quot;color: #adbac7;&quot;&gt;:&lt;/span&gt;&lt;span style=&quot;color: #f69d50;&quot;&gt;list&lt;/span&gt;&lt;span style=&quot;color: #adbac7;&quot;&gt;)-&amp;gt;&lt;/span&gt;&lt;span style=&quot;color: #f69d50;&quot;&gt;list&lt;/span&gt;&lt;span style=&quot;color: #adbac7;&quot;&gt;:&lt;/span&gt;&lt;/div&gt;&lt;/div&gt;" style="rounded=1;whiteSpace=wrap;html=1;" vertex="1" parent="1">
                    <mxGeometry x="2520" y="1054" width="500" height="30" as="geometry"/>
                </mxCell>
                <mxCell id="391" value="" style="shape=image;html=1;verticalLabelPosition=bottom;verticalAlign=top;imageAspect=0;image=img/clipart/Gear_128x128.png;fontSize=20;" vertex="1" parent="1">
                    <mxGeometry x="2390" y="1300" width="50" height="60" as="geometry"/>
                </mxCell>
                <mxCell id="397" value="5" style="edgeStyle=none;html=1;exitX=0.75;exitY=0;exitDx=0;exitDy=0;entryX=0.25;entryY=0.2;entryDx=0;entryDy=0;entryPerimeter=0;fontSize=20;fillColor=#008a00;strokeColor=#005700;" edge="1" parent="1" source="392" target="395">
                    <mxGeometry relative="1" as="geometry"/>
                </mxCell>
                <mxCell id="392" value="&lt;meta charset=&quot;utf-8&quot;&gt;&lt;div style=&quot;color: rgb(173, 186, 199); background-color: rgb(34, 39, 46); font-family: &amp;quot;JetBrains Mono&amp;quot;, Consolas, &amp;quot;Courier New&amp;quot;, monospace, Menlo, Monaco, &amp;quot;Courier New&amp;quot;, monospace; font-weight: normal; font-size: 12px; line-height: 17px;&quot;&gt;&lt;div&gt;&lt;span style=&quot;color: #f47067;&quot;&gt;def&lt;/span&gt;&lt;span style=&quot;color: #adbac7;&quot;&gt; &lt;/span&gt;&lt;span style=&quot;color: #dcbdfb;&quot;&gt;mergesort&lt;/span&gt;&lt;span style=&quot;color: #adbac7;&quot;&gt;(&lt;/span&gt;&lt;span style=&quot;color: #f69d50;&quot;&gt;arr&lt;/span&gt;&lt;span style=&quot;color: #adbac7;&quot;&gt;:&lt;/span&gt;&lt;span style=&quot;color: #f69d50;&quot;&gt;list&lt;/span&gt;&lt;span style=&quot;color: #adbac7;&quot;&gt;)-&amp;gt;&lt;/span&gt;&lt;span style=&quot;color: #f69d50;&quot;&gt;list&lt;/span&gt;&lt;span style=&quot;color: #adbac7;&quot;&gt;:&lt;/span&gt;&lt;/div&gt;&lt;/div&gt;" style="rounded=1;whiteSpace=wrap;html=1;" vertex="1" parent="1">
                    <mxGeometry x="1829" y="1066" width="500" height="30" as="geometry"/>
                </mxCell>
                <mxCell id="396" value="5" style="edgeStyle=none;html=1;exitX=0.5;exitY=1;exitDx=0;exitDy=0;entryX=0.25;entryY=0;entryDx=0;entryDy=0;fontSize=20;fillColor=#a20025;strokeColor=#6F0000;" edge="1" parent="1" source="395" target="392">
                    <mxGeometry relative="1" as="geometry"/>
                </mxCell>
                <mxCell id="395" value="" style="shape=curlyBracket;whiteSpace=wrap;html=1;rounded=1;flipH=1;labelPosition=right;verticalLabelPosition=middle;align=left;verticalAlign=middle;rotation=90;" vertex="1" parent="1">
                    <mxGeometry x="2090" y="841" width="20" height="120" as="geometry"/>
                </mxCell>
                <mxCell id="399" value="7" style="edgeStyle=none;html=1;exitX=1;exitY=0.75;exitDx=0;exitDy=0;entryX=0;entryY=0;entryDx=0;entryDy=0;fontSize=20;fillColor=#a20025;strokeColor=#6F0000;" edge="1" parent="1" source="398" target="390">
                    <mxGeometry relative="1" as="geometry"/>
                </mxCell>
                <mxCell id="398" value="" style="shape=curlyBracket;whiteSpace=wrap;html=1;rounded=1;flipH=1;labelPosition=right;verticalLabelPosition=middle;align=left;verticalAlign=middle;rotation=90;" vertex="1" parent="1">
                    <mxGeometry x="2290" y="841" width="20" height="120" as="geometry"/>
                </mxCell>
                <mxCell id="405" value="5667" style="edgeStyle=none;html=1;exitX=0;exitY=0.25;exitDx=0;exitDy=0;fontSize=20;fillColor=#1ba1e2;strokeColor=#006EAF;" edge="1" parent="1" source="404" target="277">
                    <mxGeometry relative="1" as="geometry"/>
                </mxCell>
                <mxCell id="404" value="" style="shape=image;html=1;verticalLabelPosition=bottom;verticalAlign=top;imageAspect=0;image=img/clipart/Gear_128x128.png;fontSize=20;" vertex="1" parent="1">
                    <mxGeometry x="1550" width="70" height="70" as="geometry"/>
                </mxCell>
                <mxCell id="411" style="edgeStyle=none;html=1;exitX=0.5;exitY=1;exitDx=0;exitDy=0;fontSize=20;" edge="1" parent="1" source="408" target="410">
                    <mxGeometry relative="1" as="geometry"/>
                </mxCell>
                <mxCell id="408" value="&lt;meta charset=&quot;utf-8&quot;&gt;&lt;div style=&quot;color: rgb(173, 186, 199); background-color: rgb(34, 39, 46); font-family: &amp;quot;JetBrains Mono&amp;quot;, Consolas, &amp;quot;Courier New&amp;quot;, monospace, Menlo, Monaco, &amp;quot;Courier New&amp;quot;, monospace; font-weight: normal; font-size: 12px; line-height: 17px;&quot;&gt;&lt;div&gt;&lt;span style=&quot;color: #f47067;&quot;&gt;return&lt;/span&gt;&lt;span style=&quot;color: #adbac7;&quot;&gt; &lt;/span&gt;&lt;span style=&quot;color: #dcbdfb;&quot;&gt;merge&lt;/span&gt;&lt;span style=&quot;color: #adbac7;&quot;&gt;(&lt;/span&gt;&lt;span style=&quot;color: #dcbdfb;&quot;&gt;mergesort&lt;/span&gt;&lt;span style=&quot;color: #adbac7;&quot;&gt;(&lt;/span&gt;&lt;span style=&quot;color: #adbac7;&quot;&gt;left_half&lt;/span&gt;&lt;span style=&quot;color: #adbac7;&quot;&gt;), &lt;/span&gt;&lt;span style=&quot;color: #dcbdfb;&quot;&gt;mergesort&lt;/span&gt;&lt;span style=&quot;color: #adbac7;&quot;&gt;(&lt;/span&gt;&lt;span style=&quot;color: #adbac7;&quot;&gt;right_half&lt;/span&gt;&lt;span style=&quot;color: #adbac7;&quot;&gt;))&lt;/span&gt;&lt;/div&gt;&lt;/div&gt;" style="rounded=1;whiteSpace=wrap;html=1;" vertex="1" parent="1">
                    <mxGeometry x="60" y="-340" width="480" height="60" as="geometry"/>
                </mxCell>
                <mxCell id="409" value="" style="shape=image;html=1;verticalLabelPosition=bottom;verticalAlign=top;imageAspect=1;aspect=fixed;image=img/clipart/Gear_128x128.png;fontSize=20;" vertex="1" parent="1">
                    <mxGeometry x="540" y="-340" width="52" height="61" as="geometry"/>
                </mxCell>
                <mxCell id="410" value="&lt;meta charset=&quot;utf-8&quot;&gt;&lt;span style=&quot;color: rgb(240, 240, 240); font-family: Helvetica; font-size: 20px; font-style: normal; font-variant-ligatures: normal; font-variant-caps: normal; font-weight: 400; letter-spacing: normal; orphans: 2; text-align: center; text-indent: 0px; text-transform: none; widows: 2; word-spacing: 0px; -webkit-text-stroke-width: 0px; background-color: rgb(42, 37, 47); text-decoration-thickness: initial; text-decoration-style: initial; text-decoration-color: initial; float: none; display: inline !important;&quot;&gt;[3, 5, 6, 6, 6, 7, 7]&lt;/span&gt;" style="ellipse;whiteSpace=wrap;html=1;rounded=1;fontSize=20;" vertex="1" parent="1">
                    <mxGeometry x="283" y="-160" width="257" height="180" as="geometry"/>
                </mxCell>
                <mxCell id="412" value="start sorting" style="text;html=1;strokeColor=none;fillColor=none;align=center;verticalAlign=middle;whiteSpace=wrap;rounded=0;fontSize=20;" vertex="1" parent="1">
                    <mxGeometry x="118" y="-1050" width="60" height="30" as="geometry"/>
                </mxCell>
                <mxCell id="413" value="R-A 1&lt;br&gt;down" style="ellipse;whiteSpace=wrap;html=1;fontSize=20;" vertex="1" parent="1">
                    <mxGeometry x="-460" y="-560" width="120" height="80" as="geometry"/>
                </mxCell>
                <mxCell id="414" value="R-A 2&lt;br&gt;down" style="ellipse;whiteSpace=wrap;html=1;fontSize=20;" vertex="1" parent="1">
                    <mxGeometry x="-1510" y="150" width="120" height="80" as="geometry"/>
                </mxCell>
                <mxCell id="415" value="R-A 2&lt;br&gt;up" style="ellipse;whiteSpace=wrap;html=1;fontSize=20;" vertex="1" parent="1">
                    <mxGeometry x="-1563" y="295" width="120" height="80" as="geometry"/>
                </mxCell>
            </root>
        </mxGraphModel>
    </diagram>
</mxfile>